G04 EAGLE Gerber RS-274X export*
G75*
%MOMM*%
%FSLAX34Y34*%
%LPD*%
%AMOC8*
5,1,8,0,0,1.08239X$1,22.5*%
G01*
%ADD10C,3.101600*%
%ADD11C,12.446000*%
%ADD12C,0.326897*%
%ADD13R,1.752600X1.752600*%
%ADD14C,1.752600*%
%ADD15R,0.701600X1.451600*%
%ADD16R,1.301600X2.101600*%
%ADD17C,0.293622*%
%ADD18R,3.301600X3.301600*%
%ADD19R,4.001600X4.001600*%


D10*
X270000Y334800D03*
X270000Y30000D03*
D11*
X150000Y280000D03*
D12*
X197513Y83681D02*
X204151Y83681D01*
X204151Y77043D01*
X197513Y77043D01*
X197513Y83681D01*
X197513Y80149D02*
X204151Y80149D01*
X204151Y83255D02*
X197513Y83255D01*
X188911Y83681D02*
X182273Y83681D01*
X188911Y83681D02*
X188911Y77043D01*
X182273Y77043D01*
X182273Y83681D01*
X182273Y80149D02*
X188911Y80149D01*
X188911Y83255D02*
X182273Y83255D01*
X75389Y146823D02*
X75389Y153461D01*
X82027Y153461D01*
X82027Y146823D01*
X75389Y146823D01*
X75389Y149929D02*
X82027Y149929D01*
X82027Y153035D02*
X75389Y153035D01*
X75389Y138221D02*
X75389Y131583D01*
X75389Y138221D02*
X82027Y138221D01*
X82027Y131583D01*
X75389Y131583D01*
X75389Y134689D02*
X82027Y134689D01*
X82027Y137795D02*
X75389Y137795D01*
D13*
X15000Y114900D03*
D14*
X15000Y140300D03*
X15000Y165700D03*
X15000Y191100D03*
D15*
X95000Y52000D03*
X105000Y52000D03*
X115000Y52000D03*
X125000Y52000D03*
D16*
X138000Y15250D03*
X82000Y15250D03*
D15*
X175000Y52000D03*
X185000Y52000D03*
X195000Y52000D03*
X205000Y52000D03*
D16*
X218000Y15250D03*
X162000Y15250D03*
D13*
X285000Y114900D03*
D14*
X285000Y140300D03*
X285000Y165700D03*
X285000Y191100D03*
D12*
X79721Y96267D02*
X73083Y96267D01*
X79721Y96267D02*
X79721Y89629D01*
X73083Y89629D01*
X73083Y96267D01*
X73083Y92735D02*
X79721Y92735D01*
X79721Y95841D02*
X73083Y95841D01*
X64481Y96267D02*
X57843Y96267D01*
X64481Y96267D02*
X64481Y89629D01*
X57843Y89629D01*
X57843Y96267D01*
X57843Y92735D02*
X64481Y92735D01*
X64481Y95841D02*
X57843Y95841D01*
X72829Y81789D02*
X79467Y81789D01*
X79467Y75151D01*
X72829Y75151D01*
X72829Y81789D01*
X72829Y78257D02*
X79467Y78257D01*
X79467Y81363D02*
X72829Y81363D01*
X64227Y81789D02*
X57589Y81789D01*
X64227Y81789D02*
X64227Y75151D01*
X57589Y75151D01*
X57589Y81789D01*
X57589Y78257D02*
X64227Y78257D01*
X64227Y81363D02*
X57589Y81363D01*
D17*
X217480Y101500D02*
X217480Y107200D01*
X217480Y101500D02*
X196540Y101500D01*
X196540Y107200D01*
X217480Y107200D01*
X217480Y104289D02*
X196540Y104289D01*
X196540Y107078D02*
X217480Y107078D01*
X217480Y114200D02*
X217480Y119900D01*
X217480Y114200D02*
X196540Y114200D01*
X196540Y119900D01*
X217480Y119900D01*
X217480Y116989D02*
X196540Y116989D01*
X196540Y119778D02*
X217480Y119778D01*
X217480Y126900D02*
X217480Y132600D01*
X217480Y126900D02*
X196540Y126900D01*
X196540Y132600D01*
X217480Y132600D01*
X217480Y129689D02*
X196540Y129689D01*
X196540Y132478D02*
X217480Y132478D01*
X217480Y139600D02*
X217480Y145300D01*
X217480Y139600D02*
X196540Y139600D01*
X196540Y145300D01*
X217480Y145300D01*
X217480Y142389D02*
X196540Y142389D01*
X196540Y145178D02*
X217480Y145178D01*
X217480Y152300D02*
X217480Y158000D01*
X217480Y152300D02*
X196540Y152300D01*
X196540Y158000D01*
X217480Y158000D01*
X217480Y155089D02*
X196540Y155089D01*
X196540Y157878D02*
X217480Y157878D01*
X217480Y165000D02*
X217480Y170700D01*
X217480Y165000D02*
X196540Y165000D01*
X196540Y170700D01*
X217480Y170700D01*
X217480Y167789D02*
X196540Y167789D01*
X196540Y170578D02*
X217480Y170578D01*
X217480Y177700D02*
X217480Y183400D01*
X217480Y177700D02*
X196540Y177700D01*
X196540Y183400D01*
X217480Y183400D01*
X217480Y180489D02*
X196540Y180489D01*
X196540Y183278D02*
X217480Y183278D01*
X217480Y190400D02*
X217480Y196100D01*
X217480Y190400D02*
X196540Y190400D01*
X196540Y196100D01*
X217480Y196100D01*
X217480Y193189D02*
X196540Y193189D01*
X196540Y195978D02*
X217480Y195978D01*
X115880Y196100D02*
X115880Y190400D01*
X94940Y190400D01*
X94940Y196100D01*
X115880Y196100D01*
X115880Y193189D02*
X94940Y193189D01*
X94940Y195978D02*
X115880Y195978D01*
X115880Y183400D02*
X115880Y177700D01*
X94940Y177700D01*
X94940Y183400D01*
X115880Y183400D01*
X115880Y180489D02*
X94940Y180489D01*
X94940Y183278D02*
X115880Y183278D01*
X115880Y170700D02*
X115880Y165000D01*
X94940Y165000D01*
X94940Y170700D01*
X115880Y170700D01*
X115880Y167789D02*
X94940Y167789D01*
X94940Y170578D02*
X115880Y170578D01*
X115880Y158000D02*
X115880Y152300D01*
X94940Y152300D01*
X94940Y158000D01*
X115880Y158000D01*
X115880Y155089D02*
X94940Y155089D01*
X94940Y157878D02*
X115880Y157878D01*
X115880Y145300D02*
X115880Y139600D01*
X94940Y139600D01*
X94940Y145300D01*
X115880Y145300D01*
X115880Y142389D02*
X94940Y142389D01*
X94940Y145178D02*
X115880Y145178D01*
X115880Y132600D02*
X115880Y126900D01*
X94940Y126900D01*
X94940Y132600D01*
X115880Y132600D01*
X115880Y129689D02*
X94940Y129689D01*
X94940Y132478D02*
X115880Y132478D01*
X115880Y119900D02*
X115880Y114200D01*
X94940Y114200D01*
X94940Y119900D01*
X115880Y119900D01*
X115880Y116989D02*
X94940Y116989D01*
X94940Y119778D02*
X115880Y119778D01*
X115880Y107200D02*
X115880Y101500D01*
X94940Y101500D01*
X94940Y107200D01*
X115880Y107200D01*
X115880Y104289D02*
X94940Y104289D01*
X94940Y107078D02*
X115880Y107078D01*
D18*
X53000Y280000D03*
X247000Y280000D03*
D19*
X150000Y280000D03*
M02*
