G04 EAGLE Gerber RS-274X export*
G75*
%MOMM*%
%FSLAX34Y34*%
%LPD*%
%AMOC8*
5,1,8,0,0,1.08239X$1,22.5*%
G01*
%ADD10C,0.101600*%
%ADD11C,0.130000*%
%ADD12C,0.152400*%
%ADD13R,0.120000X0.020000*%
%ADD14R,0.340000X0.020000*%
%ADD15R,0.320000X0.020000*%
%ADD16R,0.140000X0.020000*%
%ADD17R,0.280000X0.020000*%
%ADD18R,0.360000X0.020000*%
%ADD19R,0.420000X0.020000*%
%ADD20R,0.380000X0.020000*%
%ADD21R,0.480000X0.020000*%
%ADD22R,0.540000X0.020000*%
%ADD23R,0.560000X0.020000*%
%ADD24R,0.400000X0.020000*%
%ADD25R,0.640000X0.020000*%
%ADD26R,0.620000X0.020000*%
%ADD27R,0.700000X0.020000*%
%ADD28R,0.660000X0.020000*%
%ADD29R,0.740000X0.020000*%
%ADD30R,1.080000X0.020000*%
%ADD31R,0.800000X0.020000*%
%ADD32R,1.100000X0.020000*%
%ADD33R,0.440000X0.020000*%
%ADD34R,0.840000X0.020000*%
%ADD35R,1.120000X0.020000*%
%ADD36R,0.460000X0.020000*%
%ADD37R,0.860000X0.020000*%
%ADD38R,0.900000X0.020000*%
%ADD39R,1.140000X0.020000*%
%ADD40R,0.920000X0.020000*%
%ADD41R,1.160000X0.020000*%
%ADD42R,0.960000X0.020000*%
%ADD43R,0.500000X0.020000*%
%ADD44R,0.520000X0.020000*%
%ADD45R,0.940000X0.020000*%
%ADD46R,0.260000X0.020000*%
%ADD47R,0.180000X0.020000*%
%ADD48R,0.580000X0.020000*%
%ADD49R,0.060000X0.020000*%
%ADD50R,0.600000X0.020000*%
%ADD51R,0.300000X0.020000*%
%ADD52R,0.040000X0.020000*%
%ADD53R,0.100000X0.020000*%
%ADD54R,0.160000X0.020000*%
%ADD55R,0.220000X0.020000*%
%ADD56R,0.980000X0.020000*%
%ADD57R,0.880000X0.020000*%
%ADD58R,0.760000X0.020000*%
%ADD59R,1.060000X0.020000*%
%ADD60R,0.720000X0.020000*%
%ADD61R,0.820000X0.020000*%
%ADD62R,1.180000X0.020000*%
%ADD63R,1.340000X0.020000*%
%ADD64R,1.460000X0.020000*%
%ADD65R,1.600000X0.020000*%
%ADD66R,1.700000X0.020000*%
%ADD67R,1.820000X0.020000*%
%ADD68R,1.900000X0.020000*%
%ADD69R,1.980000X0.020000*%
%ADD70R,2.100000X0.020000*%
%ADD71R,2.160000X0.020000*%
%ADD72R,2.260000X0.020000*%
%ADD73R,2.340000X0.020000*%
%ADD74R,2.400000X0.020000*%
%ADD75R,2.480000X0.020000*%
%ADD76R,2.540000X0.020000*%
%ADD77R,2.600000X0.020000*%
%ADD78R,2.680000X0.020000*%
%ADD79R,2.720000X0.020000*%
%ADD80R,2.800000X0.020000*%
%ADD81R,2.840000X0.020000*%
%ADD82R,2.900000X0.020000*%
%ADD83R,2.960000X0.020000*%
%ADD84R,3.000000X0.020000*%
%ADD85R,3.060000X0.020000*%
%ADD86R,3.120000X0.020000*%
%ADD87R,3.160000X0.020000*%
%ADD88R,3.200000X0.020000*%
%ADD89R,3.260000X0.020000*%
%ADD90R,3.300000X0.020000*%
%ADD91R,3.340000X0.020000*%
%ADD92R,3.380000X0.020000*%
%ADD93R,3.420000X0.020000*%
%ADD94R,3.460000X0.020000*%
%ADD95R,3.520000X0.020000*%
%ADD96R,3.540000X0.020000*%
%ADD97R,3.580000X0.020000*%
%ADD98R,3.620000X0.020000*%
%ADD99R,3.660000X0.020000*%
%ADD100R,3.700000X0.020000*%
%ADD101R,3.740000X0.020000*%
%ADD102R,3.780000X0.020000*%
%ADD103R,3.800000X0.020000*%
%ADD104R,3.840000X0.020000*%
%ADD105R,3.860000X0.020000*%
%ADD106R,3.900000X0.020000*%
%ADD107R,3.940000X0.020000*%
%ADD108R,3.960000X0.020000*%
%ADD109R,3.980000X0.020000*%
%ADD110R,4.020000X0.020000*%
%ADD111R,4.060000X0.020000*%
%ADD112R,4.080000X0.020000*%
%ADD113R,4.100000X0.020000*%
%ADD114R,4.120000X0.020000*%
%ADD115R,4.160000X0.020000*%
%ADD116R,4.180000X0.020000*%
%ADD117R,4.200000X0.020000*%
%ADD118R,4.240000X0.020000*%
%ADD119R,4.260000X0.020000*%
%ADD120R,4.280000X0.020000*%
%ADD121R,4.300000X0.020000*%
%ADD122R,4.320000X0.020000*%
%ADD123R,4.340000X0.020000*%
%ADD124R,4.380000X0.020000*%
%ADD125R,4.400000X0.020000*%
%ADD126R,4.440000X0.020000*%
%ADD127R,4.460000X0.020000*%
%ADD128R,4.500000X0.020000*%
%ADD129R,4.520000X0.020000*%
%ADD130R,4.540000X0.020000*%
%ADD131R,4.560000X0.020000*%
%ADD132R,4.580000X0.020000*%
%ADD133R,4.600000X0.020000*%
%ADD134R,4.620000X0.020000*%
%ADD135R,4.640000X0.020000*%
%ADD136R,4.660000X0.020000*%
%ADD137R,4.680000X0.020000*%
%ADD138R,4.700000X0.020000*%
%ADD139R,4.720000X0.020000*%
%ADD140R,4.740000X0.020000*%
%ADD141R,0.680000X0.020000*%
%ADD142R,1.480000X0.020000*%
%ADD143R,1.580000X0.020000*%
%ADD144R,1.560000X0.020000*%
%ADD145R,1.540000X0.020000*%
%ADD146R,1.520000X0.020000*%
%ADD147R,1.500000X0.020000*%
%ADD148R,1.440000X0.020000*%
%ADD149R,1.400000X0.020000*%
%ADD150R,1.420000X0.020000*%
%ADD151R,1.380000X0.020000*%
%ADD152R,1.360000X0.020000*%
%ADD153R,1.320000X0.020000*%
%ADD154R,1.300000X0.020000*%
%ADD155R,1.260000X0.020000*%
%ADD156R,1.220000X0.020000*%
%ADD157R,1.200000X0.020000*%
%ADD158R,1.040000X0.020000*%
%ADD159R,1.020000X0.020000*%
%ADD160R,1.000000X0.020000*%
%ADD161R,1.280000X0.020000*%
%ADD162R,0.780000X0.020000*%
%ADD163R,1.240000X0.020000*%
%ADD164R,0.020000X0.020000*%
%ADD165R,1.840000X0.020000*%
%ADD166R,1.800000X0.020000*%
%ADD167R,1.780000X0.020000*%
%ADD168R,1.760000X0.020000*%
%ADD169R,1.740000X0.020000*%
%ADD170R,1.680000X0.020000*%
%ADD171R,1.660000X0.020000*%
%ADD172R,1.620000X0.020000*%

G36*
X185279Y313751D02*
X185279Y313751D01*
X185278Y313752D01*
X185279Y313753D01*
X185279Y332463D01*
X185274Y332468D01*
X185274Y332473D01*
X185038Y332627D01*
X185037Y332627D01*
X183603Y333466D01*
X182170Y334302D01*
X180734Y335138D01*
X179298Y335972D01*
X177861Y336806D01*
X176425Y337640D01*
X174990Y338474D01*
X173552Y339308D01*
X172117Y340142D01*
X170703Y340963D01*
X169289Y341784D01*
X167878Y342607D01*
X165054Y344253D01*
X163644Y345079D01*
X162234Y345908D01*
X160828Y346738D01*
X159452Y347575D01*
X160986Y348260D01*
X162549Y348931D01*
X164116Y349599D01*
X165684Y350265D01*
X167251Y350928D01*
X168820Y351590D01*
X170389Y352252D01*
X171960Y352911D01*
X173566Y353586D01*
X175171Y354260D01*
X176777Y354935D01*
X178383Y355612D01*
X179988Y356287D01*
X181594Y356963D01*
X183198Y357642D01*
X184802Y358324D01*
X184804Y358329D01*
X184809Y358333D01*
X184807Y358335D01*
X184809Y358338D01*
X184802Y358341D01*
X184798Y358347D01*
X183152Y358455D01*
X183151Y358455D01*
X182817Y358459D01*
X182814Y358459D01*
X181708Y358470D01*
X181708Y358471D01*
X181705Y358471D01*
X181452Y358473D01*
X180029Y358482D01*
X180024Y358482D01*
X179753Y358484D01*
X178054Y358492D01*
X176733Y358494D01*
X176718Y358494D01*
X176355Y358495D01*
X174656Y358499D01*
X172957Y358501D01*
X171257Y358502D01*
X169558Y358504D01*
X167859Y358504D01*
X166160Y358506D01*
X162762Y358506D01*
X162643Y358506D01*
X162614Y358506D01*
X161043Y358508D01*
X155886Y358508D01*
X154167Y358510D01*
X150728Y358510D01*
X149009Y358512D01*
X143852Y358512D01*
X142133Y358513D01*
X142133Y358514D01*
X140414Y358514D01*
X140402Y358503D01*
X140403Y358502D01*
X140402Y358502D01*
X140402Y339714D01*
X140407Y339709D01*
X140408Y339704D01*
X141847Y338870D01*
X144729Y337198D01*
X146169Y336363D01*
X147610Y335529D01*
X149049Y334693D01*
X150490Y333857D01*
X151931Y333021D01*
X153371Y332186D01*
X154813Y331350D01*
X156256Y330512D01*
X157697Y329675D01*
X159139Y328835D01*
X160581Y327996D01*
X162023Y327157D01*
X163462Y326313D01*
X164901Y325470D01*
X166313Y324628D01*
X164672Y323913D01*
X163002Y323204D01*
X161333Y322498D01*
X159663Y321794D01*
X157991Y321090D01*
X156318Y320388D01*
X154647Y319685D01*
X153037Y319010D01*
X151426Y318334D01*
X149815Y317659D01*
X148206Y316984D01*
X146594Y316308D01*
X144983Y315633D01*
X141764Y314279D01*
X140567Y313773D01*
X140564Y313767D01*
X140559Y313763D01*
X140561Y313761D01*
X140560Y313759D01*
X140566Y313755D01*
X140571Y313750D01*
X145728Y313750D01*
X147446Y313748D01*
X154322Y313748D01*
X156041Y313746D01*
X162919Y313746D01*
X164638Y313744D01*
X171515Y313744D01*
X173234Y313743D01*
X180110Y313743D01*
X181829Y313741D01*
X185267Y313741D01*
X185279Y313751D01*
G37*
G36*
X149408Y289405D02*
X149408Y289405D01*
X149950Y289418D01*
X149951Y289418D01*
X151215Y289595D01*
X151215Y289596D01*
X151216Y289596D01*
X151217Y289596D01*
X152907Y290199D01*
X152908Y290201D01*
X152909Y290200D01*
X154456Y291113D01*
X154457Y291114D01*
X154458Y291114D01*
X155808Y292297D01*
X155808Y292299D01*
X155809Y292299D01*
X156894Y293678D01*
X156893Y293679D01*
X156895Y293680D01*
X157694Y295240D01*
X157694Y295241D01*
X157695Y295242D01*
X158159Y296934D01*
X158159Y296935D01*
X158160Y296936D01*
X158304Y298682D01*
X158303Y298683D01*
X158304Y298684D01*
X158169Y300476D01*
X158168Y300478D01*
X158168Y300479D01*
X157686Y302211D01*
X157684Y302212D01*
X157685Y302213D01*
X156880Y303800D01*
X156879Y303801D01*
X156879Y303802D01*
X155783Y305205D01*
X155782Y305205D01*
X155782Y305206D01*
X154443Y306382D01*
X154442Y306382D01*
X154442Y306384D01*
X152913Y307294D01*
X152911Y307294D01*
X152911Y307295D01*
X151239Y307912D01*
X151238Y307911D01*
X151237Y307912D01*
X149838Y308137D01*
X149837Y308137D01*
X149409Y308159D01*
X149034Y308178D01*
X148557Y308202D01*
X148421Y308209D01*
X148420Y308208D01*
X148420Y308209D01*
X147006Y308128D01*
X147005Y308127D01*
X147004Y308128D01*
X145239Y307674D01*
X145238Y307673D01*
X145237Y307674D01*
X143573Y306929D01*
X143572Y306928D01*
X143571Y306928D01*
X142062Y305908D01*
X142062Y305906D01*
X142060Y305906D01*
X141077Y304895D01*
X141077Y304894D01*
X141075Y304894D01*
X140262Y303741D01*
X140262Y303740D01*
X140261Y303740D01*
X139606Y302489D01*
X139606Y302488D01*
X139605Y302488D01*
X139134Y301158D01*
X139134Y301156D01*
X139133Y301156D01*
X138917Y299594D01*
X138918Y299593D01*
X138917Y299592D01*
X138917Y298012D01*
X138918Y298011D01*
X138917Y298010D01*
X139135Y296449D01*
X139136Y296448D01*
X139135Y296446D01*
X139697Y294875D01*
X139698Y294875D01*
X139698Y294874D01*
X140519Y293420D01*
X140520Y293419D01*
X140520Y293418D01*
X141582Y292132D01*
X141584Y292132D01*
X141584Y292131D01*
X142859Y291055D01*
X142860Y291055D01*
X142860Y291054D01*
X144303Y290218D01*
X144305Y290219D01*
X144305Y290218D01*
X145700Y289682D01*
X145702Y289682D01*
X145703Y289681D01*
X147177Y289432D01*
X147178Y289433D01*
X147178Y289432D01*
X148672Y289388D01*
X148673Y289389D01*
X148673Y289388D01*
X149408Y289405D01*
G37*
G36*
X185383Y289600D02*
X185383Y289600D01*
X185383Y289601D01*
X185381Y291143D01*
X185378Y292685D01*
X185374Y292689D01*
X185375Y292693D01*
X184376Y293854D01*
X183378Y295013D01*
X181381Y297336D01*
X180382Y298495D01*
X179384Y299657D01*
X178383Y300818D01*
X177385Y301977D01*
X176386Y303139D01*
X175405Y304279D01*
X176992Y304288D01*
X180218Y304306D01*
X181831Y304315D01*
X183444Y304324D01*
X185059Y304333D01*
X185071Y304344D01*
X185070Y304345D01*
X185071Y304345D01*
X185071Y307899D01*
X185060Y307910D01*
X185059Y307910D01*
X185059Y307911D01*
X170106Y307911D01*
X170095Y307900D01*
X170095Y307899D01*
X170094Y307899D01*
X170094Y304866D01*
X170098Y304863D01*
X170097Y304859D01*
X171099Y303692D01*
X172102Y302527D01*
X173104Y301360D01*
X174106Y300195D01*
X175108Y299030D01*
X176110Y297864D01*
X177113Y296699D01*
X178115Y295532D01*
X179117Y294367D01*
X180102Y293220D01*
X179894Y293219D01*
X179889Y293219D01*
X178458Y293211D01*
X177714Y293207D01*
X177709Y293207D01*
X176787Y293202D01*
X175533Y293195D01*
X175528Y293195D01*
X175117Y293192D01*
X173448Y293183D01*
X173356Y293183D01*
X173350Y293183D01*
X171776Y293174D01*
X171020Y293171D01*
X171013Y293171D01*
X170106Y293167D01*
X170094Y293156D01*
X170095Y293156D01*
X170094Y293155D01*
X170094Y289601D01*
X170105Y289590D01*
X170106Y289590D01*
X185371Y289590D01*
X185383Y289600D01*
G37*
G36*
X119945Y289389D02*
X119945Y289389D01*
X119946Y289388D01*
X121654Y289584D01*
X121655Y289586D01*
X121656Y289585D01*
X123225Y290139D01*
X123226Y290140D01*
X123227Y290140D01*
X124678Y290955D01*
X124678Y290957D01*
X124679Y290957D01*
X125950Y292028D01*
X125951Y292030D01*
X125952Y292030D01*
X127002Y293319D01*
X127002Y293321D01*
X127003Y293321D01*
X127806Y294779D01*
X127805Y294780D01*
X127807Y294780D01*
X128362Y296349D01*
X128362Y296351D01*
X128363Y296352D01*
X128535Y297568D01*
X128534Y297569D01*
X128535Y297569D01*
X128550Y298802D01*
X128549Y298802D01*
X128550Y298802D01*
X128520Y300139D01*
X128519Y300140D01*
X128520Y300141D01*
X128262Y301449D01*
X128261Y301450D01*
X128262Y301451D01*
X127695Y302923D01*
X127694Y302924D01*
X127694Y302925D01*
X126904Y304291D01*
X126903Y304291D01*
X126903Y304293D01*
X125892Y305503D01*
X125890Y305503D01*
X125890Y305505D01*
X124683Y306518D01*
X124682Y306518D01*
X124681Y306519D01*
X123315Y307306D01*
X123314Y307305D01*
X123313Y307306D01*
X121838Y307866D01*
X121836Y307865D01*
X121836Y307866D01*
X120276Y308154D01*
X120275Y308153D01*
X120274Y308154D01*
X120265Y308154D01*
X119952Y308166D01*
X119639Y308178D01*
X119326Y308190D01*
X119325Y308190D01*
X119013Y308202D01*
X119012Y308202D01*
X118699Y308214D01*
X118690Y308214D01*
X118689Y308214D01*
X117109Y308073D01*
X117108Y308073D01*
X117107Y308073D01*
X115759Y307777D01*
X115758Y307776D01*
X114466Y307288D01*
X114466Y307287D01*
X114465Y307287D01*
X113274Y306589D01*
X113274Y306587D01*
X113273Y306588D01*
X112183Y305739D01*
X112182Y305739D01*
X111824Y305432D01*
X111823Y305423D01*
X111822Y305422D01*
X111822Y305421D01*
X111822Y305416D01*
X111823Y305416D01*
X111823Y305415D01*
X112465Y304676D01*
X113105Y303939D01*
X114388Y302461D01*
X114395Y302460D01*
X114397Y302460D01*
X114404Y302459D01*
X114405Y302459D01*
X115154Y303022D01*
X116568Y303895D01*
X118143Y304417D01*
X119800Y304445D01*
X121380Y303947D01*
X122659Y303049D01*
X123608Y301808D01*
X124186Y300354D01*
X124385Y298800D01*
X124206Y297245D01*
X123646Y295783D01*
X122721Y294522D01*
X121655Y293688D01*
X120393Y293203D01*
X119043Y293064D01*
X117575Y293212D01*
X116199Y293736D01*
X114984Y294578D01*
X114312Y295132D01*
X114296Y295131D01*
X113001Y293825D01*
X112354Y293174D01*
X111706Y292521D01*
X111706Y292518D01*
X111706Y292517D01*
X111705Y292506D01*
X111707Y292506D01*
X111707Y292504D01*
X112385Y291879D01*
X112386Y291879D01*
X112386Y291878D01*
X113622Y290880D01*
X113623Y290880D01*
X113623Y290879D01*
X115002Y290094D01*
X115004Y290094D01*
X115004Y290093D01*
X116508Y289585D01*
X116509Y289585D01*
X116510Y289584D01*
X118220Y289392D01*
X118221Y289393D01*
X118221Y289392D01*
X119944Y289388D01*
X119945Y289389D01*
G37*
G36*
X100680Y289387D02*
X100680Y289387D01*
X100681Y289387D01*
X102429Y289588D01*
X102431Y289589D01*
X102432Y289588D01*
X104001Y290157D01*
X104002Y290159D01*
X104003Y290158D01*
X105441Y291005D01*
X105441Y291006D01*
X105442Y291006D01*
X106702Y292100D01*
X106703Y292101D01*
X106704Y292101D01*
X107744Y293405D01*
X107744Y293407D01*
X107746Y293407D01*
X108539Y294876D01*
X108539Y294877D01*
X108540Y294877D01*
X109063Y296463D01*
X109063Y296464D01*
X109064Y296465D01*
X109067Y296488D01*
X109074Y296536D01*
X109079Y296571D01*
X109081Y296583D01*
X109086Y296619D01*
X109088Y296631D01*
X109093Y296667D01*
X109100Y296715D01*
X109107Y296762D01*
X109108Y296762D01*
X109107Y296762D01*
X109115Y296810D01*
X109120Y296846D01*
X109122Y296858D01*
X109127Y296894D01*
X109129Y296906D01*
X109134Y296941D01*
X109141Y296989D01*
X109148Y297037D01*
X109155Y297085D01*
X109160Y297120D01*
X109160Y297121D01*
X109162Y297132D01*
X109167Y297168D01*
X109169Y297180D01*
X109174Y297216D01*
X109181Y297264D01*
X109188Y297311D01*
X109188Y297312D01*
X109195Y297359D01*
X109201Y297395D01*
X109202Y297407D01*
X109208Y297443D01*
X109209Y297455D01*
X109215Y297491D01*
X109222Y297538D01*
X109229Y297586D01*
X109236Y297634D01*
X109241Y297670D01*
X109243Y297682D01*
X109248Y297717D01*
X109250Y297729D01*
X109255Y297765D01*
X109262Y297813D01*
X109269Y297861D01*
X109276Y297908D01*
X109282Y297944D01*
X109283Y297956D01*
X109289Y297992D01*
X109290Y298004D01*
X109296Y298040D01*
X109303Y298087D01*
X109307Y298116D01*
X109306Y298118D01*
X109307Y298119D01*
X109263Y299786D01*
X109262Y299787D01*
X109263Y299788D01*
X108961Y301387D01*
X108960Y301388D01*
X108961Y301389D01*
X108401Y302916D01*
X108400Y302916D01*
X108400Y302918D01*
X107585Y304324D01*
X107583Y304324D01*
X107583Y304326D01*
X106528Y305562D01*
X106527Y305562D01*
X106527Y305563D01*
X105268Y306593D01*
X105267Y306593D01*
X105267Y306594D01*
X103847Y307388D01*
X103846Y307388D01*
X103846Y307389D01*
X102315Y307939D01*
X102313Y307938D01*
X102312Y307940D01*
X100546Y308168D01*
X100545Y308168D01*
X100544Y308168D01*
X99178Y308164D01*
X99167Y308164D01*
X98759Y308163D01*
X98759Y308162D01*
X98758Y308163D01*
X96991Y307934D01*
X96990Y307933D01*
X96989Y307934D01*
X95453Y307407D01*
X95452Y307406D01*
X95451Y307406D01*
X94021Y306642D01*
X94020Y306640D01*
X94019Y306641D01*
X93278Y306065D01*
X93278Y306064D01*
X93277Y306064D01*
X92624Y305400D01*
X92624Y305384D01*
X93415Y304395D01*
X93416Y304394D01*
X94253Y303439D01*
X94254Y303439D01*
X95135Y302528D01*
X95149Y302527D01*
X95151Y302527D01*
X95933Y303079D01*
X97104Y303839D01*
X98407Y304328D01*
X99794Y304465D01*
X101249Y304271D01*
X102588Y303680D01*
X103688Y302715D01*
X104478Y301480D01*
X104945Y300144D01*
X105062Y298733D01*
X104872Y297145D01*
X104281Y295661D01*
X103292Y294407D01*
X101973Y293509D01*
X101017Y293154D01*
X99996Y293079D01*
X98438Y293161D01*
X96978Y293692D01*
X95693Y294574D01*
X94974Y295138D01*
X94958Y295137D01*
X93740Y293913D01*
X92520Y292578D01*
X92520Y292562D01*
X93363Y291653D01*
X93364Y291652D01*
X94324Y290861D01*
X94326Y290862D01*
X94326Y290860D01*
X95698Y290116D01*
X95699Y290116D01*
X95699Y290115D01*
X97168Y289592D01*
X97170Y289593D01*
X97171Y289591D01*
X98917Y289388D01*
X98918Y289389D01*
X98918Y289388D01*
X100680Y289387D01*
X100680Y289387D01*
G37*
%LPC*%
G36*
X147214Y293176D02*
X147214Y293176D01*
X145866Y293719D01*
X144724Y294621D01*
X143852Y295787D01*
X143299Y297132D01*
X143145Y298702D01*
X143286Y300193D01*
X143804Y301593D01*
X144697Y302792D01*
X145937Y303770D01*
X147405Y304350D01*
X148978Y304490D01*
X149406Y304407D01*
X150527Y304184D01*
X152010Y303339D01*
X153145Y302058D01*
X153855Y300500D01*
X154096Y298806D01*
X153855Y297052D01*
X153118Y295444D01*
X151910Y294152D01*
X150353Y293311D01*
X149406Y293161D01*
X148793Y293066D01*
X147214Y293176D01*
G37*
%LPD*%
G36*
X166146Y289600D02*
X166146Y289600D01*
X166145Y289601D01*
X166146Y289601D01*
X166146Y307899D01*
X166136Y307910D01*
X166135Y307910D01*
X166134Y307911D01*
X162056Y307911D01*
X162044Y307900D01*
X162045Y307899D01*
X162044Y307899D01*
X162044Y289601D01*
X162054Y289590D01*
X162055Y289590D01*
X162056Y289590D01*
X166134Y289590D01*
X166146Y289600D01*
G37*
G36*
X135825Y289600D02*
X135825Y289600D01*
X135824Y289601D01*
X135825Y289601D01*
X135825Y293784D01*
X135814Y293796D01*
X135813Y293795D01*
X135813Y293796D01*
X131630Y293796D01*
X131618Y293785D01*
X131619Y293785D01*
X131618Y293784D01*
X131618Y289601D01*
X131629Y289590D01*
X131630Y289590D01*
X135813Y289590D01*
X135825Y289600D01*
G37*
D10*
X236220Y271280D02*
X230119Y271280D01*
X230119Y269755D01*
X236220Y263653D01*
X236220Y262128D01*
X230119Y262128D01*
X226865Y268229D02*
X225340Y268229D01*
X225340Y262128D01*
X226865Y262128D02*
X223814Y262128D01*
X225340Y271280D02*
X225340Y272805D01*
X219103Y262128D02*
X216052Y262128D01*
X214527Y263653D01*
X214527Y266704D01*
X216052Y268229D01*
X219103Y268229D01*
X220628Y266704D01*
X220628Y263653D01*
X219103Y262128D01*
X201918Y263653D02*
X201918Y269755D01*
X200392Y271280D01*
X197342Y271280D01*
X195816Y269755D01*
X195816Y263653D01*
X197342Y262128D01*
X200392Y262128D01*
X201918Y263653D01*
X198867Y265179D02*
X195816Y262128D01*
X192562Y263653D02*
X192562Y268229D01*
X192562Y263653D02*
X191037Y262128D01*
X189512Y263653D01*
X187987Y262128D01*
X186461Y263653D01*
X186461Y268229D01*
X183207Y268229D02*
X181682Y268229D01*
X181682Y262128D01*
X183207Y262128D02*
X180157Y262128D01*
X181682Y271280D02*
X181682Y272805D01*
X176971Y268229D02*
X175445Y268229D01*
X175445Y262128D01*
X173920Y262128D02*
X176971Y262128D01*
X175445Y271280D02*
X175445Y272805D01*
X169208Y268229D02*
X164633Y268229D01*
X169208Y268229D02*
X170734Y266704D01*
X170734Y263653D01*
X169208Y262128D01*
X164633Y262128D01*
X152023Y262128D02*
X152023Y271280D01*
X147447Y271280D01*
X145922Y269755D01*
X145922Y266704D01*
X147447Y265179D01*
X152023Y265179D01*
X148973Y265179D02*
X145922Y262128D01*
X139618Y262128D02*
X139618Y271280D01*
X142668Y271280D02*
X136567Y271280D01*
X128737Y271280D02*
X127212Y269755D01*
X128737Y271280D02*
X131788Y271280D01*
X133313Y269755D01*
X133313Y263653D01*
X131788Y262128D01*
X128737Y262128D01*
X127212Y263653D01*
X114603Y262128D02*
X114603Y271280D01*
X114603Y262128D02*
X110027Y262128D01*
X108501Y263653D01*
X108501Y269755D01*
X110027Y271280D01*
X114603Y271280D01*
X100672Y271280D02*
X99146Y269755D01*
X100672Y271280D02*
X103722Y271280D01*
X105247Y269755D01*
X105247Y268229D01*
X103722Y266704D01*
X100672Y266704D01*
X99146Y265179D01*
X99146Y263653D01*
X100672Y262128D01*
X103722Y262128D01*
X105247Y263653D01*
X95892Y269755D02*
X94367Y271280D01*
X91316Y271280D01*
X89791Y269755D01*
X89791Y268229D01*
X91316Y266704D01*
X92842Y266704D01*
X91316Y266704D02*
X89791Y265179D01*
X89791Y263653D01*
X91316Y262128D01*
X94367Y262128D01*
X95892Y263653D01*
X86537Y262128D02*
X80436Y262128D01*
X86537Y262128D02*
X80436Y268229D01*
X80436Y269755D01*
X81961Y271280D01*
X85012Y271280D01*
X86537Y269755D01*
X77182Y269755D02*
X75657Y271280D01*
X72606Y271280D01*
X71081Y269755D01*
X71081Y268229D01*
X72606Y266704D01*
X74131Y266704D01*
X72606Y266704D02*
X71081Y265179D01*
X71081Y263653D01*
X72606Y262128D01*
X75657Y262128D01*
X77182Y263653D01*
X67827Y268229D02*
X64776Y271280D01*
X64776Y262128D01*
X67827Y262128D02*
X61725Y262128D01*
X53896Y271280D02*
X52370Y269755D01*
X53896Y271280D02*
X56946Y271280D01*
X58471Y269755D01*
X58471Y268229D01*
X56946Y266704D01*
X53896Y266704D01*
X52370Y265179D01*
X52370Y263653D01*
X53896Y262128D01*
X56946Y262128D01*
X58471Y263653D01*
X49116Y262128D02*
X49116Y271280D01*
X43015Y262128D01*
X43015Y271280D01*
X81787Y97536D02*
X83312Y96011D01*
X83312Y94485D01*
X81787Y92960D01*
X74160Y92960D01*
X74160Y94485D02*
X74160Y91435D01*
X74160Y88181D02*
X83312Y88181D01*
X74160Y88181D02*
X74160Y83605D01*
X75686Y82080D01*
X78736Y82080D01*
X80261Y83605D01*
X80261Y88181D01*
X77211Y78826D02*
X74160Y75775D01*
X83312Y75775D01*
X83312Y78826D02*
X83312Y72724D01*
D11*
X308864Y335280D02*
X385260Y335280D01*
X385260Y30480D02*
X323088Y30480D01*
X365760Y31130D02*
X365760Y334630D01*
X362568Y309280D01*
X368952Y309280D01*
X365760Y334630D01*
X364460Y309280D01*
X367060Y309280D02*
X365760Y334630D01*
X363160Y309280D01*
X368360Y309280D02*
X365760Y334630D01*
X362568Y56480D02*
X365760Y31130D01*
X362568Y56480D02*
X368952Y56480D01*
X365760Y31130D01*
X364460Y56480D01*
X367060Y56480D02*
X365760Y31130D01*
X363160Y56480D01*
X368360Y56480D02*
X365760Y31130D01*
D12*
X353844Y151155D02*
X359267Y156579D01*
X342997Y156579D01*
X342997Y162002D02*
X342997Y151155D01*
X342997Y167527D02*
X345709Y167527D01*
X345709Y170239D01*
X342997Y170239D01*
X342997Y167527D01*
X342997Y175713D02*
X342997Y186559D01*
X342997Y175713D02*
X353844Y186559D01*
X356555Y186559D01*
X359267Y183848D01*
X359267Y178424D01*
X356555Y175713D01*
X356555Y192084D02*
X345709Y192084D01*
X356555Y192084D02*
X359267Y194796D01*
X359267Y200219D01*
X356555Y202931D01*
X345709Y202931D01*
X342997Y200219D01*
X342997Y194796D01*
X345709Y192084D01*
X356555Y202931D01*
X50090Y98314D02*
X50090Y72914D01*
X70410Y98314D02*
X70408Y98414D01*
X70402Y98513D01*
X70392Y98613D01*
X70379Y98711D01*
X70361Y98810D01*
X70340Y98907D01*
X70315Y99003D01*
X70286Y99099D01*
X70253Y99193D01*
X70217Y99286D01*
X70177Y99377D01*
X70133Y99467D01*
X70086Y99555D01*
X70036Y99641D01*
X69982Y99725D01*
X69925Y99807D01*
X69865Y99886D01*
X69801Y99964D01*
X69735Y100038D01*
X69666Y100110D01*
X69594Y100179D01*
X69520Y100245D01*
X69442Y100309D01*
X69363Y100369D01*
X69281Y100426D01*
X69197Y100480D01*
X69111Y100530D01*
X69023Y100577D01*
X68933Y100621D01*
X68842Y100661D01*
X68749Y100697D01*
X68655Y100730D01*
X68559Y100759D01*
X68463Y100784D01*
X68366Y100805D01*
X68267Y100823D01*
X68169Y100836D01*
X68069Y100846D01*
X67970Y100852D01*
X67870Y100854D01*
X70410Y72914D02*
X70408Y72814D01*
X70402Y72715D01*
X70392Y72615D01*
X70379Y72517D01*
X70361Y72418D01*
X70340Y72321D01*
X70315Y72225D01*
X70286Y72129D01*
X70253Y72035D01*
X70217Y71942D01*
X70177Y71851D01*
X70133Y71761D01*
X70086Y71673D01*
X70036Y71587D01*
X69982Y71503D01*
X69925Y71421D01*
X69865Y71342D01*
X69801Y71264D01*
X69735Y71190D01*
X69666Y71118D01*
X69594Y71049D01*
X69520Y70983D01*
X69442Y70919D01*
X69363Y70859D01*
X69281Y70802D01*
X69197Y70748D01*
X69111Y70698D01*
X69023Y70651D01*
X68933Y70607D01*
X68842Y70567D01*
X68749Y70531D01*
X68655Y70498D01*
X68559Y70469D01*
X68463Y70444D01*
X68366Y70423D01*
X68267Y70405D01*
X68169Y70392D01*
X68069Y70382D01*
X67970Y70376D01*
X67870Y70374D01*
X52630Y70374D02*
X52530Y70376D01*
X52431Y70382D01*
X52331Y70392D01*
X52233Y70405D01*
X52134Y70423D01*
X52037Y70444D01*
X51941Y70469D01*
X51845Y70498D01*
X51751Y70531D01*
X51658Y70567D01*
X51567Y70607D01*
X51477Y70651D01*
X51389Y70698D01*
X51303Y70748D01*
X51219Y70802D01*
X51137Y70859D01*
X51058Y70919D01*
X50980Y70983D01*
X50906Y71049D01*
X50834Y71118D01*
X50765Y71190D01*
X50699Y71264D01*
X50635Y71342D01*
X50575Y71421D01*
X50518Y71503D01*
X50464Y71587D01*
X50414Y71673D01*
X50367Y71761D01*
X50323Y71851D01*
X50283Y71942D01*
X50247Y72035D01*
X50214Y72129D01*
X50185Y72225D01*
X50160Y72321D01*
X50139Y72418D01*
X50121Y72517D01*
X50108Y72615D01*
X50098Y72715D01*
X50092Y72814D01*
X50090Y72914D01*
X50090Y98314D02*
X50092Y98414D01*
X50098Y98513D01*
X50108Y98613D01*
X50121Y98711D01*
X50139Y98810D01*
X50160Y98907D01*
X50185Y99003D01*
X50214Y99099D01*
X50247Y99193D01*
X50283Y99286D01*
X50323Y99377D01*
X50367Y99467D01*
X50414Y99555D01*
X50464Y99641D01*
X50518Y99725D01*
X50575Y99807D01*
X50635Y99886D01*
X50699Y99964D01*
X50765Y100038D01*
X50834Y100110D01*
X50906Y100179D01*
X50980Y100245D01*
X51058Y100309D01*
X51137Y100369D01*
X51219Y100426D01*
X51303Y100480D01*
X51389Y100530D01*
X51477Y100577D01*
X51567Y100621D01*
X51658Y100661D01*
X51751Y100697D01*
X51845Y100730D01*
X51941Y100759D01*
X52037Y100784D01*
X52134Y100805D01*
X52233Y100823D01*
X52331Y100836D01*
X52431Y100846D01*
X52530Y100852D01*
X52630Y100854D01*
X67870Y100854D01*
X67870Y70374D02*
X52630Y70374D01*
X70410Y72914D02*
X70410Y98314D01*
X84328Y17272D02*
X86868Y11430D01*
X88138Y12192D01*
X91186Y10160D01*
X93472Y12446D01*
X91440Y15748D01*
X92710Y19050D01*
X96520Y19812D01*
X96520Y23114D01*
X92710Y23622D01*
X91186Y26924D01*
X93472Y30226D01*
X91186Y32512D01*
X87884Y30226D01*
X84836Y31496D01*
X84074Y35560D01*
X80772Y35560D01*
X80010Y31496D01*
X76962Y30226D01*
X73406Y32512D01*
X71120Y30226D01*
X73406Y26924D01*
X72136Y23876D01*
X68326Y23114D01*
X68326Y19812D01*
X71882Y19050D01*
X73406Y15748D01*
X71120Y12446D01*
X73406Y10160D01*
X76454Y12192D01*
X77978Y11430D01*
X80264Y17272D01*
X80145Y17334D01*
X80027Y17399D01*
X79912Y17468D01*
X79798Y17540D01*
X79687Y17616D01*
X79578Y17695D01*
X79471Y17777D01*
X79367Y17862D01*
X79266Y17950D01*
X79167Y18041D01*
X79071Y18135D01*
X78978Y18232D01*
X78887Y18331D01*
X78800Y18433D01*
X78715Y18538D01*
X78634Y18645D01*
X78556Y18755D01*
X78482Y18867D01*
X78410Y18981D01*
X78342Y19097D01*
X78278Y19215D01*
X78217Y19334D01*
X78159Y19456D01*
X78105Y19579D01*
X78055Y19704D01*
X78009Y19830D01*
X77966Y19958D01*
X77927Y20086D01*
X77892Y20216D01*
X77861Y20347D01*
X77834Y20479D01*
X77810Y20611D01*
X77791Y20744D01*
X77775Y20878D01*
X77764Y21011D01*
X77756Y21146D01*
X77752Y21280D01*
X77753Y21415D01*
X77757Y21549D01*
X77765Y21683D01*
X77778Y21817D01*
X77794Y21951D01*
X77814Y22083D01*
X77838Y22216D01*
X77866Y22347D01*
X77898Y22478D01*
X77934Y22608D01*
X77973Y22736D01*
X78016Y22863D01*
X78063Y22989D01*
X78114Y23114D01*
X78169Y23237D01*
X78227Y23358D01*
X78288Y23477D01*
X78353Y23595D01*
X78422Y23711D01*
X78494Y23824D01*
X78569Y23936D01*
X78648Y24045D01*
X78729Y24152D01*
X78814Y24256D01*
X78902Y24358D01*
X78993Y24457D01*
X79087Y24553D01*
X79184Y24647D01*
X79283Y24737D01*
X79385Y24825D01*
X79489Y24910D01*
X79596Y24991D01*
X79706Y25069D01*
X79817Y25144D01*
X79931Y25216D01*
X80047Y25284D01*
X80165Y25349D01*
X80284Y25410D01*
X80406Y25468D01*
X80529Y25522D01*
X80653Y25573D01*
X80779Y25619D01*
X80907Y25662D01*
X81035Y25702D01*
X81165Y25737D01*
X81296Y25769D01*
X81427Y25796D01*
X81560Y25820D01*
X81693Y25840D01*
X81826Y25856D01*
X81960Y25868D01*
X82094Y25876D01*
X82229Y25880D01*
X82363Y25880D01*
X82498Y25876D01*
X82632Y25868D01*
X82766Y25856D01*
X82899Y25840D01*
X83032Y25820D01*
X83165Y25796D01*
X83296Y25769D01*
X83427Y25737D01*
X83557Y25702D01*
X83685Y25662D01*
X83813Y25619D01*
X83939Y25573D01*
X84063Y25522D01*
X84186Y25468D01*
X84308Y25410D01*
X84427Y25349D01*
X84545Y25284D01*
X84661Y25216D01*
X84775Y25144D01*
X84886Y25069D01*
X84996Y24991D01*
X85103Y24910D01*
X85207Y24825D01*
X85309Y24737D01*
X85408Y24647D01*
X85505Y24553D01*
X85599Y24457D01*
X85690Y24358D01*
X85778Y24256D01*
X85863Y24152D01*
X85944Y24045D01*
X86023Y23936D01*
X86098Y23824D01*
X86170Y23711D01*
X86239Y23595D01*
X86304Y23477D01*
X86365Y23358D01*
X86423Y23237D01*
X86478Y23114D01*
X86529Y22989D01*
X86576Y22863D01*
X86619Y22736D01*
X86658Y22608D01*
X86694Y22478D01*
X86726Y22347D01*
X86754Y22216D01*
X86778Y22083D01*
X86798Y21951D01*
X86814Y21817D01*
X86827Y21683D01*
X86835Y21549D01*
X86839Y21415D01*
X86840Y21280D01*
X86836Y21146D01*
X86828Y21011D01*
X86817Y20878D01*
X86801Y20744D01*
X86782Y20611D01*
X86758Y20479D01*
X86731Y20347D01*
X86700Y20216D01*
X86665Y20086D01*
X86626Y19958D01*
X86583Y19830D01*
X86537Y19704D01*
X86487Y19579D01*
X86433Y19456D01*
X86375Y19334D01*
X86314Y19215D01*
X86250Y19097D01*
X86182Y18981D01*
X86110Y18867D01*
X86036Y18755D01*
X85958Y18645D01*
X85877Y18538D01*
X85792Y18433D01*
X85705Y18331D01*
X85614Y18232D01*
X85521Y18135D01*
X85425Y18041D01*
X85326Y17950D01*
X85225Y17862D01*
X85121Y17777D01*
X85014Y17695D01*
X84905Y17616D01*
X84794Y17540D01*
X84680Y17468D01*
X84565Y17399D01*
X84447Y17334D01*
X84328Y17272D01*
D13*
X226240Y76380D03*
D14*
X220940Y76380D03*
X216740Y76380D03*
D15*
X208840Y76380D03*
X201240Y76380D03*
D14*
X197140Y76380D03*
X192940Y76380D03*
D16*
X185140Y76380D03*
D17*
X226240Y76180D03*
D18*
X220840Y76180D03*
X216640Y76180D03*
X208840Y76180D03*
D14*
X201140Y76180D03*
D18*
X197240Y76180D03*
X192840Y76180D03*
D15*
X185040Y76180D03*
D19*
X226340Y75980D03*
D18*
X220840Y75980D03*
X216640Y75980D03*
D20*
X208940Y75980D03*
D18*
X201240Y75980D03*
X197240Y75980D03*
X192840Y75980D03*
D21*
X185040Y75980D03*
X226240Y75780D03*
D18*
X220840Y75780D03*
X216640Y75780D03*
D20*
X208940Y75780D03*
D14*
X201340Y75780D03*
D18*
X197240Y75780D03*
X192840Y75780D03*
D22*
X185140Y75780D03*
D23*
X226240Y75580D03*
D18*
X220840Y75580D03*
X216440Y75580D03*
D24*
X208840Y75580D03*
D14*
X201340Y75580D03*
D18*
X197240Y75580D03*
X192840Y75580D03*
D25*
X185040Y75580D03*
D26*
X226340Y75380D03*
D18*
X220840Y75380D03*
X216440Y75380D03*
D24*
X208840Y75380D03*
D18*
X201440Y75380D03*
X197240Y75380D03*
X192840Y75380D03*
D27*
X185140Y75380D03*
D28*
X226340Y75180D03*
D20*
X220940Y75180D03*
D14*
X216340Y75180D03*
D19*
X208940Y75180D03*
D14*
X201540Y75180D03*
D18*
X197240Y75180D03*
X192840Y75180D03*
D29*
X185140Y75180D03*
D30*
X224440Y74980D03*
D18*
X216240Y74980D03*
D19*
X208940Y74980D03*
D14*
X201540Y74980D03*
D18*
X197240Y74980D03*
X192840Y74980D03*
D31*
X185040Y74980D03*
D32*
X224540Y74780D03*
D18*
X216240Y74780D03*
D33*
X208840Y74780D03*
D14*
X201540Y74780D03*
D18*
X197240Y74780D03*
X192840Y74780D03*
D34*
X185040Y74780D03*
D35*
X224640Y74580D03*
D14*
X216140Y74580D03*
D36*
X208940Y74580D03*
D14*
X201740Y74580D03*
D18*
X197240Y74580D03*
X192840Y74580D03*
D37*
X185140Y74580D03*
D35*
X224640Y74380D03*
D14*
X216140Y74380D03*
D36*
X208940Y74380D03*
D14*
X201740Y74380D03*
D18*
X197240Y74380D03*
X192840Y74380D03*
D38*
X185140Y74380D03*
D39*
X224740Y74180D03*
D18*
X216040Y74180D03*
D21*
X208840Y74180D03*
D15*
X201840Y74180D03*
D18*
X197240Y74180D03*
X192840Y74180D03*
D40*
X185040Y74180D03*
D41*
X224840Y73980D03*
D14*
X215940Y73980D03*
D21*
X208840Y73980D03*
D14*
X201940Y73980D03*
D18*
X197240Y73980D03*
X192840Y73980D03*
D42*
X185040Y73980D03*
D41*
X224840Y73780D03*
D14*
X215940Y73780D03*
D43*
X208940Y73780D03*
D14*
X201940Y73780D03*
D18*
X197240Y73780D03*
X192840Y73780D03*
D42*
X185240Y73780D03*
D41*
X224840Y73580D03*
D18*
X215840Y73580D03*
D44*
X208840Y73580D03*
D14*
X201940Y73580D03*
D18*
X197240Y73580D03*
X192840Y73580D03*
D45*
X185340Y73580D03*
D21*
X228440Y73380D03*
D22*
X221740Y73380D03*
D14*
X215740Y73380D03*
D44*
X208840Y73380D03*
D15*
X202040Y73380D03*
D18*
X197240Y73380D03*
X192840Y73380D03*
D21*
X187840Y73380D03*
D15*
X182640Y73380D03*
D36*
X228740Y73180D03*
D43*
X221540Y73180D03*
D14*
X215740Y73180D03*
D44*
X208840Y73180D03*
D14*
X202140Y73180D03*
D18*
X197240Y73180D03*
X192840Y73180D03*
D33*
X188040Y73180D03*
D46*
X182540Y73180D03*
D19*
X228940Y72980D03*
D36*
X221340Y72980D03*
D18*
X215640Y72980D03*
D22*
X208940Y72980D03*
D15*
X202240Y72980D03*
D18*
X197240Y72980D03*
X192840Y72980D03*
D19*
X188340Y72980D03*
D47*
X182540Y72980D03*
D24*
X229040Y72780D03*
D33*
X221240Y72780D03*
D14*
X215540Y72780D03*
D22*
X208940Y72780D03*
D15*
X202240Y72780D03*
D18*
X197240Y72780D03*
X192840Y72780D03*
D24*
X188440Y72780D03*
D13*
X182640Y72780D03*
D24*
X229040Y72580D03*
D19*
X221140Y72580D03*
D14*
X215540Y72580D03*
D48*
X208940Y72580D03*
D14*
X202340Y72580D03*
D18*
X197240Y72580D03*
X192840Y72580D03*
D20*
X188540Y72580D03*
D49*
X182740Y72580D03*
D20*
X229140Y72380D03*
D24*
X221040Y72380D03*
D15*
X215440Y72380D03*
D48*
X208940Y72380D03*
D15*
X202440Y72380D03*
D18*
X197240Y72380D03*
X192840Y72380D03*
X188640Y72380D03*
D20*
X229340Y72180D03*
D24*
X221040Y72180D03*
D14*
X215340Y72180D03*
D50*
X208840Y72180D03*
D15*
X202440Y72180D03*
D18*
X197240Y72180D03*
X192840Y72180D03*
D20*
X188740Y72180D03*
X229340Y71980D03*
D24*
X221040Y71980D03*
D14*
X215340Y71980D03*
D50*
X208840Y71980D03*
D15*
X202640Y71980D03*
D18*
X197240Y71980D03*
X192840Y71980D03*
D20*
X188740Y71980D03*
X229340Y71780D03*
X220940Y71780D03*
D15*
X215240Y71780D03*
D17*
X210440Y71780D03*
D51*
X207340Y71780D03*
D15*
X202640Y71780D03*
D18*
X197240Y71780D03*
X192840Y71780D03*
X188840Y71780D03*
X229440Y71580D03*
D20*
X220940Y71580D03*
D14*
X215140Y71580D03*
D17*
X210640Y71580D03*
D51*
X207340Y71580D03*
D15*
X202640Y71580D03*
D18*
X197240Y71580D03*
X192840Y71580D03*
X188840Y71580D03*
X229440Y71380D03*
D20*
X220940Y71380D03*
D14*
X215140Y71380D03*
D17*
X210640Y71380D03*
D51*
X207140Y71380D03*
X202740Y71380D03*
D18*
X197240Y71380D03*
X192840Y71380D03*
X188840Y71380D03*
X229440Y71180D03*
X220840Y71180D03*
D15*
X215040Y71180D03*
D51*
X210740Y71180D03*
X207140Y71180D03*
D15*
X202840Y71180D03*
D18*
X197240Y71180D03*
X192840Y71180D03*
X188840Y71180D03*
X229440Y70980D03*
X220840Y70980D03*
D14*
X214940Y70980D03*
D51*
X210740Y70980D03*
X207140Y70980D03*
D15*
X202840Y70980D03*
D18*
X197240Y70980D03*
X192840Y70980D03*
X188840Y70980D03*
X229440Y70780D03*
X220840Y70780D03*
D15*
X214840Y70780D03*
D17*
X210840Y70780D03*
X207040Y70780D03*
D51*
X202940Y70780D03*
D18*
X197240Y70780D03*
X192840Y70780D03*
X188840Y70780D03*
X229440Y70580D03*
X220840Y70580D03*
D15*
X214840Y70580D03*
D17*
X210840Y70580D03*
D51*
X206940Y70580D03*
D15*
X203040Y70580D03*
D18*
X197240Y70580D03*
X192840Y70580D03*
X188840Y70580D03*
X229440Y70380D03*
X220840Y70380D03*
D15*
X214840Y70380D03*
D17*
X211040Y70380D03*
D51*
X206940Y70380D03*
X203140Y70380D03*
D18*
X197240Y70380D03*
X192840Y70380D03*
X188840Y70380D03*
X229440Y70180D03*
D20*
X220940Y70180D03*
D14*
X214740Y70180D03*
D17*
X211040Y70180D03*
D51*
X206740Y70180D03*
X203140Y70180D03*
D18*
X197240Y70180D03*
X192840Y70180D03*
X188840Y70180D03*
X229440Y69980D03*
D20*
X220940Y69980D03*
D15*
X214640Y69980D03*
D17*
X211040Y69980D03*
D51*
X206740Y69980D03*
X203140Y69980D03*
D18*
X197240Y69980D03*
X192840Y69980D03*
X188840Y69980D03*
D20*
X229340Y69780D03*
X220940Y69780D03*
D15*
X214640Y69780D03*
D17*
X211040Y69780D03*
D51*
X206740Y69780D03*
D15*
X203240Y69780D03*
D18*
X197240Y69780D03*
X192840Y69780D03*
D20*
X188740Y69780D03*
X229340Y69580D03*
D24*
X221040Y69580D03*
D15*
X214440Y69580D03*
D17*
X211240Y69580D03*
D51*
X206740Y69580D03*
X203340Y69580D03*
D18*
X197240Y69580D03*
X192840Y69580D03*
D20*
X188740Y69580D03*
X229340Y69380D03*
D24*
X221040Y69380D03*
D26*
X212940Y69380D03*
X204940Y69380D03*
D18*
X197240Y69380D03*
X192840Y69380D03*
D20*
X188540Y69380D03*
D52*
X182640Y69380D03*
D20*
X229140Y69180D03*
D24*
X221040Y69180D03*
D26*
X212940Y69180D03*
D50*
X205040Y69180D03*
D18*
X197240Y69180D03*
X192840Y69180D03*
D20*
X188540Y69180D03*
D53*
X182540Y69180D03*
D24*
X229040Y68980D03*
D19*
X221140Y68980D03*
D48*
X212940Y68980D03*
X204940Y68980D03*
D18*
X197240Y68980D03*
X192840Y68980D03*
D24*
X188440Y68980D03*
D54*
X182440Y68980D03*
D24*
X229040Y68780D03*
D33*
X221240Y68780D03*
D48*
X212940Y68780D03*
X204940Y68780D03*
D18*
X197240Y68780D03*
X192840Y68780D03*
D19*
X188340Y68780D03*
D55*
X182340Y68780D03*
D19*
X228940Y68580D03*
D36*
X221340Y68580D03*
D48*
X212940Y68580D03*
D23*
X205040Y68580D03*
D18*
X197240Y68580D03*
X192840Y68580D03*
D33*
X188040Y68580D03*
D17*
X182440Y68580D03*
D33*
X228640Y68380D03*
D21*
X221440Y68380D03*
D22*
X212940Y68380D03*
D23*
X205040Y68380D03*
D18*
X197240Y68380D03*
X192840Y68380D03*
D42*
X185440Y68380D03*
D36*
X228540Y68180D03*
D44*
X221640Y68180D03*
D22*
X212940Y68180D03*
X204940Y68180D03*
D18*
X197240Y68180D03*
X192840Y68180D03*
D42*
X185240Y68180D03*
D44*
X228040Y67980D03*
D50*
X222040Y67980D03*
D44*
X212840Y67980D03*
X205040Y67980D03*
D18*
X197240Y67980D03*
X192840Y67980D03*
D56*
X185140Y67980D03*
D41*
X224840Y67780D03*
D43*
X212940Y67780D03*
D44*
X205040Y67780D03*
D18*
X197240Y67780D03*
X192840Y67780D03*
D45*
X185140Y67780D03*
D41*
X224840Y67580D03*
D43*
X212940Y67580D03*
D21*
X205040Y67580D03*
D18*
X197240Y67580D03*
X192840Y67580D03*
D40*
X185040Y67580D03*
D39*
X224740Y67380D03*
D21*
X212840Y67380D03*
X205040Y67380D03*
D18*
X197240Y67380D03*
X192840Y67380D03*
D57*
X185040Y67380D03*
D35*
X224640Y67180D03*
D21*
X212840Y67180D03*
X205040Y67180D03*
D18*
X197240Y67180D03*
X192840Y67180D03*
D34*
X185040Y67180D03*
D32*
X224540Y66980D03*
D36*
X212940Y66980D03*
D33*
X205040Y66980D03*
D18*
X197240Y66980D03*
X192840Y66980D03*
D31*
X185040Y66980D03*
D30*
X224440Y66780D03*
D33*
X212840Y66780D03*
X205040Y66780D03*
D18*
X197240Y66780D03*
X192840Y66780D03*
D58*
X185040Y66780D03*
D59*
X224340Y66580D03*
D19*
X212940Y66580D03*
D33*
X205040Y66580D03*
D18*
X197240Y66580D03*
X192840Y66580D03*
D60*
X185040Y66580D03*
D25*
X226240Y66380D03*
D20*
X220940Y66380D03*
D24*
X212840Y66380D03*
D19*
X205140Y66380D03*
D18*
X197240Y66380D03*
X192840Y66380D03*
D25*
X185040Y66380D03*
D50*
X226240Y66180D03*
D18*
X220840Y66180D03*
D24*
X212840Y66180D03*
X205040Y66180D03*
D18*
X197240Y66180D03*
X192840Y66180D03*
D50*
X185040Y66180D03*
D23*
X226240Y65980D03*
D18*
X220840Y65980D03*
D24*
X212840Y65980D03*
D20*
X205140Y65980D03*
D18*
X197240Y65980D03*
X192840Y65980D03*
D43*
X185140Y65980D03*
D21*
X226240Y65780D03*
D18*
X220840Y65780D03*
X212840Y65780D03*
D20*
X205140Y65780D03*
D18*
X197240Y65780D03*
X192840Y65780D03*
X185040Y65780D03*
D24*
X226240Y65580D03*
D18*
X220840Y65580D03*
X212840Y65580D03*
X205040Y65580D03*
D14*
X197140Y65580D03*
D18*
X192840Y65580D03*
D55*
X185140Y65580D03*
D17*
X226240Y65380D03*
D18*
X220840Y65380D03*
D53*
X226140Y65180D03*
D18*
X220840Y65180D03*
X220840Y64980D03*
X220840Y64780D03*
X220840Y64580D03*
X220840Y64380D03*
X220840Y64180D03*
X220840Y63980D03*
X220840Y63780D03*
X220840Y63580D03*
X220840Y63380D03*
X220840Y63180D03*
X220840Y62980D03*
D19*
X205140Y62980D03*
D18*
X220840Y62780D03*
D61*
X205140Y62780D03*
D18*
X220840Y62580D03*
D56*
X205140Y62580D03*
D18*
X220840Y62380D03*
D62*
X205140Y62380D03*
D18*
X220840Y62180D03*
D63*
X205140Y62180D03*
D18*
X220840Y61980D03*
D64*
X205140Y61980D03*
D18*
X220840Y61780D03*
D65*
X205040Y61780D03*
D14*
X220940Y61580D03*
D66*
X205140Y61580D03*
D67*
X205140Y61380D03*
D68*
X205140Y61180D03*
D69*
X205140Y60980D03*
D70*
X205140Y60780D03*
D71*
X205040Y60580D03*
D72*
X205140Y60380D03*
D73*
X205140Y60180D03*
D74*
X205040Y59980D03*
D75*
X205040Y59780D03*
D76*
X205140Y59580D03*
D77*
X205040Y59380D03*
D78*
X205040Y59180D03*
D79*
X205040Y58980D03*
D80*
X205040Y58780D03*
D81*
X205040Y58580D03*
D82*
X205140Y58380D03*
D83*
X205040Y58180D03*
D84*
X205040Y57980D03*
D85*
X205140Y57780D03*
D86*
X205040Y57580D03*
D87*
X205040Y57380D03*
D88*
X205040Y57180D03*
D89*
X205140Y56980D03*
D90*
X205140Y56780D03*
D91*
X205140Y56580D03*
D92*
X205140Y56380D03*
D93*
X205140Y56180D03*
D94*
X205140Y55980D03*
D95*
X205040Y55780D03*
D96*
X205140Y55580D03*
D97*
X205140Y55380D03*
D98*
X205140Y55180D03*
D99*
X205140Y54980D03*
D100*
X205140Y54780D03*
D101*
X205140Y54580D03*
D102*
X205140Y54380D03*
D103*
X205040Y54180D03*
D104*
X205040Y53980D03*
D105*
X205140Y53780D03*
D106*
X205140Y53580D03*
D107*
X205140Y53380D03*
D108*
X205040Y53180D03*
D109*
X205140Y52980D03*
D110*
X205140Y52780D03*
D111*
X205140Y52580D03*
D112*
X205040Y52380D03*
D113*
X205140Y52180D03*
D114*
X205040Y51980D03*
D115*
X205040Y51780D03*
D116*
X205140Y51580D03*
D117*
X205040Y51380D03*
D118*
X205040Y51180D03*
D119*
X205140Y50980D03*
D120*
X205040Y50780D03*
D121*
X205140Y50580D03*
D122*
X205040Y50380D03*
D123*
X205140Y50180D03*
D124*
X205140Y49980D03*
X205140Y49780D03*
D125*
X205040Y49580D03*
D126*
X205040Y49380D03*
D127*
X205140Y49180D03*
X205140Y48980D03*
D128*
X205140Y48780D03*
D129*
X205040Y48580D03*
X205040Y48380D03*
D130*
X205140Y48180D03*
D131*
X205040Y47980D03*
D132*
X205140Y47780D03*
D133*
X205040Y47580D03*
X205040Y47380D03*
D134*
X205140Y47180D03*
D135*
X205040Y46980D03*
D136*
X205140Y46780D03*
X205140Y46580D03*
D137*
X205040Y46380D03*
D138*
X205140Y46180D03*
D139*
X205040Y45980D03*
X205040Y45780D03*
D140*
X205140Y45580D03*
X205140Y45380D03*
D50*
X225840Y45180D03*
D25*
X184440Y45180D03*
D50*
X226040Y44980D03*
D26*
X184340Y44980D03*
D48*
X226140Y44780D03*
D26*
X184340Y44780D03*
D48*
X226140Y44580D03*
D26*
X184340Y44580D03*
D48*
X226140Y44380D03*
D25*
X184240Y44380D03*
D50*
X226240Y44180D03*
D25*
X184240Y44180D03*
D50*
X226240Y43980D03*
D25*
X184240Y43980D03*
D50*
X226240Y43780D03*
D28*
X184140Y43780D03*
D50*
X226240Y43580D03*
D28*
X184140Y43580D03*
D26*
X226340Y43380D03*
D28*
X184140Y43380D03*
D26*
X226340Y43180D03*
D28*
X184140Y43180D03*
D26*
X226340Y42980D03*
D28*
X184140Y42980D03*
D26*
X226340Y42780D03*
D28*
X184140Y42780D03*
D26*
X226340Y42580D03*
D141*
X184040Y42580D03*
D25*
X226440Y42380D03*
D141*
X184040Y42380D03*
D25*
X226440Y42180D03*
D141*
X184040Y42180D03*
D25*
X226440Y41980D03*
D141*
X184040Y41980D03*
D25*
X226440Y41780D03*
D141*
X184040Y41780D03*
D25*
X226440Y41580D03*
D27*
X183940Y41580D03*
D25*
X226440Y41380D03*
D27*
X183940Y41380D03*
D25*
X226440Y41180D03*
D27*
X183940Y41180D03*
D25*
X226440Y40980D03*
D27*
X183940Y40980D03*
D25*
X226440Y40780D03*
D27*
X183940Y40780D03*
D25*
X226440Y40580D03*
D27*
X183940Y40580D03*
D28*
X226540Y40380D03*
D36*
X216140Y40380D03*
D21*
X209040Y40380D03*
X201840Y40380D03*
D36*
X194740Y40380D03*
D27*
X183940Y40380D03*
D28*
X226540Y40180D03*
D21*
X216240Y40180D03*
X209040Y40180D03*
D43*
X201740Y40180D03*
D21*
X194640Y40180D03*
D27*
X183940Y40180D03*
D28*
X226540Y39980D03*
D21*
X216240Y39980D03*
X209040Y39980D03*
D43*
X201740Y39980D03*
D21*
X194640Y39980D03*
D27*
X183940Y39980D03*
D28*
X226540Y39780D03*
D21*
X216240Y39780D03*
X209040Y39780D03*
D43*
X201740Y39780D03*
D21*
X194640Y39780D03*
D27*
X183940Y39780D03*
D28*
X226540Y39580D03*
D21*
X216240Y39580D03*
X209040Y39580D03*
D43*
X201740Y39580D03*
D21*
X194640Y39580D03*
D27*
X183940Y39580D03*
D28*
X226540Y39380D03*
D21*
X216240Y39380D03*
X209040Y39380D03*
D43*
X201740Y39380D03*
D21*
X194640Y39380D03*
D27*
X183940Y39380D03*
D28*
X226540Y39180D03*
D21*
X216240Y39180D03*
X209040Y39180D03*
D43*
X201740Y39180D03*
D21*
X194640Y39180D03*
D27*
X183940Y39180D03*
D28*
X226540Y38980D03*
D21*
X216240Y38980D03*
X209040Y38980D03*
D43*
X201740Y38980D03*
D21*
X194640Y38980D03*
D60*
X183840Y38980D03*
D28*
X226540Y38780D03*
D21*
X216240Y38780D03*
X209040Y38780D03*
D43*
X201740Y38780D03*
D21*
X194640Y38780D03*
D60*
X183840Y38780D03*
D28*
X226540Y38580D03*
D21*
X216240Y38580D03*
X209040Y38580D03*
D43*
X201740Y38580D03*
D21*
X194640Y38580D03*
D60*
X183840Y38580D03*
D28*
X226540Y38380D03*
D21*
X216240Y38380D03*
X209040Y38380D03*
D43*
X201740Y38380D03*
D21*
X194640Y38380D03*
D60*
X183840Y38380D03*
D28*
X226540Y38180D03*
D21*
X216240Y38180D03*
X209040Y38180D03*
D43*
X201740Y38180D03*
D21*
X194640Y38180D03*
D60*
X183840Y38180D03*
D28*
X226540Y37980D03*
D21*
X216240Y37980D03*
X209040Y37980D03*
D43*
X201740Y37980D03*
D21*
X194640Y37980D03*
D60*
X183840Y37980D03*
D28*
X226540Y37780D03*
D21*
X216240Y37780D03*
X209040Y37780D03*
D43*
X201740Y37780D03*
D21*
X194640Y37780D03*
D60*
X183840Y37780D03*
D28*
X226540Y37580D03*
D21*
X216240Y37580D03*
X209040Y37580D03*
D43*
X201740Y37580D03*
D21*
X194640Y37580D03*
D60*
X183840Y37580D03*
D28*
X226540Y37380D03*
D21*
X216240Y37380D03*
X209040Y37380D03*
D43*
X201740Y37380D03*
D21*
X194640Y37380D03*
D27*
X183940Y37380D03*
D28*
X226540Y37180D03*
D21*
X216240Y37180D03*
X209040Y37180D03*
D43*
X201740Y37180D03*
D21*
X194640Y37180D03*
D27*
X183940Y37180D03*
D28*
X226540Y36980D03*
D21*
X216240Y36980D03*
X209040Y36980D03*
D43*
X201740Y36980D03*
D21*
X194640Y36980D03*
D27*
X183940Y36980D03*
D28*
X226540Y36780D03*
D21*
X216240Y36780D03*
X209040Y36780D03*
D43*
X201740Y36780D03*
D21*
X194640Y36780D03*
D27*
X183940Y36780D03*
D28*
X226540Y36580D03*
D21*
X216240Y36580D03*
X209040Y36580D03*
D43*
X201740Y36580D03*
D21*
X194640Y36580D03*
D27*
X183940Y36580D03*
D28*
X226540Y36380D03*
D21*
X216240Y36380D03*
X209040Y36380D03*
D43*
X201740Y36380D03*
D21*
X194640Y36380D03*
D27*
X183940Y36380D03*
D28*
X226540Y36180D03*
D21*
X216240Y36180D03*
X209040Y36180D03*
D43*
X201740Y36180D03*
D21*
X194640Y36180D03*
D27*
X183940Y36180D03*
D25*
X226440Y35980D03*
D21*
X216240Y35980D03*
X209040Y35980D03*
D43*
X201740Y35980D03*
D21*
X194640Y35980D03*
D27*
X183940Y35980D03*
D25*
X226440Y35780D03*
D36*
X216140Y35780D03*
D21*
X209040Y35780D03*
X201840Y35780D03*
D36*
X194740Y35780D03*
D27*
X183940Y35780D03*
D25*
X226440Y35580D03*
D27*
X183940Y35580D03*
D25*
X226440Y35380D03*
D27*
X183940Y35380D03*
D25*
X226440Y35180D03*
D27*
X183940Y35180D03*
D25*
X226440Y34980D03*
D27*
X183940Y34980D03*
D25*
X226440Y34780D03*
D27*
X183940Y34780D03*
D25*
X226440Y34580D03*
D141*
X184040Y34580D03*
D25*
X226440Y34380D03*
D141*
X184040Y34380D03*
D25*
X226440Y34180D03*
D141*
X184040Y34180D03*
D26*
X226340Y33980D03*
D141*
X184040Y33980D03*
D26*
X226340Y33780D03*
D28*
X184140Y33780D03*
D26*
X226340Y33580D03*
D28*
X184140Y33580D03*
D26*
X226340Y33380D03*
D28*
X184140Y33380D03*
D26*
X226340Y33180D03*
D28*
X184140Y33180D03*
D50*
X226240Y32980D03*
D28*
X184140Y32980D03*
D50*
X226240Y32780D03*
D28*
X184140Y32780D03*
D50*
X226240Y32580D03*
D25*
X184240Y32580D03*
D50*
X226240Y32380D03*
D25*
X184240Y32380D03*
D48*
X226140Y32180D03*
D25*
X184240Y32180D03*
D48*
X226140Y31980D03*
D25*
X184240Y31980D03*
D48*
X226140Y31780D03*
D26*
X184340Y31780D03*
D48*
X226140Y31580D03*
D26*
X184340Y31580D03*
D23*
X226040Y31380D03*
D26*
X184340Y31380D03*
D23*
X226040Y31180D03*
D50*
X184440Y31180D03*
D48*
X225940Y30980D03*
D26*
X184540Y30980D03*
D142*
X221240Y30780D03*
D28*
X205540Y30780D03*
D143*
X189340Y30780D03*
D142*
X221240Y30580D03*
D28*
X205540Y30580D03*
D143*
X189340Y30580D03*
D142*
X221240Y30380D03*
D28*
X205540Y30380D03*
D144*
X189440Y30380D03*
D142*
X221240Y30180D03*
D141*
X205440Y30180D03*
D145*
X189340Y30180D03*
D64*
X221140Y29980D03*
D141*
X205440Y29980D03*
D146*
X189440Y29980D03*
D142*
X221040Y29780D03*
D141*
X205440Y29780D03*
D146*
X189440Y29780D03*
D64*
X220940Y29580D03*
D141*
X205440Y29580D03*
D146*
X189440Y29580D03*
D64*
X220940Y29380D03*
D27*
X205340Y29380D03*
D147*
X189340Y29380D03*
D64*
X220940Y29180D03*
D141*
X205240Y29180D03*
D142*
X189440Y29180D03*
D148*
X220840Y28980D03*
D141*
X205240Y28980D03*
D64*
X189340Y28980D03*
D148*
X220840Y28780D03*
D141*
X205240Y28780D03*
D148*
X189440Y28780D03*
X220640Y28580D03*
D27*
X205140Y28580D03*
D148*
X189440Y28580D03*
X220640Y28380D03*
D27*
X205140Y28380D03*
D149*
X189440Y28380D03*
D150*
X220540Y28180D03*
D141*
X205040Y28180D03*
D149*
X189440Y28180D03*
D150*
X220540Y27980D03*
D27*
X204940Y27980D03*
D151*
X189340Y27980D03*
D150*
X220540Y27780D03*
D27*
X204940Y27780D03*
D152*
X189440Y27780D03*
D149*
X220440Y27580D03*
D27*
X204940Y27580D03*
D153*
X189440Y27580D03*
D150*
X220340Y27380D03*
D27*
X204740Y27380D03*
D153*
X189440Y27380D03*
D149*
X220240Y27180D03*
D27*
X204740Y27180D03*
D154*
X189340Y27180D03*
D149*
X220240Y26980D03*
D27*
X204740Y26980D03*
D155*
X189340Y26980D03*
D151*
X220140Y26780D03*
D60*
X204640Y26780D03*
D155*
X189340Y26780D03*
D149*
X220040Y26580D03*
D27*
X204540Y26580D03*
D156*
X189340Y26580D03*
D151*
X219940Y26380D03*
D60*
X204440Y26380D03*
D157*
X189440Y26380D03*
D152*
X219840Y26180D03*
D60*
X204440Y26180D03*
D62*
X189340Y26180D03*
D152*
X219840Y25980D03*
D60*
X204240Y25980D03*
D39*
X189340Y25980D03*
D152*
X219640Y25780D03*
D60*
X204240Y25780D03*
D39*
X189340Y25780D03*
D152*
X219640Y25580D03*
D29*
X204140Y25580D03*
D32*
X189340Y25580D03*
D63*
X219540Y25380D03*
D60*
X204040Y25380D03*
D30*
X189240Y25380D03*
D153*
X219440Y25180D03*
D29*
X203940Y25180D03*
D158*
X189240Y25180D03*
D63*
X219340Y24980D03*
D29*
X203940Y24980D03*
D159*
X189340Y24980D03*
D153*
X219240Y24780D03*
D29*
X203740Y24780D03*
D160*
X189240Y24780D03*
D63*
X219140Y24580D03*
D29*
X203740Y24580D03*
D42*
X189240Y24580D03*
D153*
X219040Y24380D03*
D29*
X203540Y24380D03*
D40*
X189240Y24380D03*
D154*
X218940Y24180D03*
D58*
X203440Y24180D03*
D38*
X189140Y24180D03*
D154*
X218940Y23980D03*
D58*
X203440Y23980D03*
D37*
X189140Y23980D03*
D154*
X218740Y23780D03*
D58*
X203240Y23780D03*
D61*
X189140Y23780D03*
D161*
X218640Y23580D03*
D58*
X203240Y23580D03*
D31*
X189040Y23580D03*
D161*
X218440Y23380D03*
D58*
X203040Y23380D03*
X189040Y23380D03*
D161*
X218440Y23180D03*
D162*
X202940Y23180D03*
D27*
X188940Y23180D03*
D155*
X218340Y22980D03*
D162*
X202740Y22980D03*
D28*
X188940Y22980D03*
D155*
X218140Y22780D03*
D162*
X202740Y22780D03*
D25*
X188840Y22780D03*
D155*
X218140Y22580D03*
D162*
X202540Y22580D03*
D50*
X188840Y22580D03*
D156*
X217940Y22380D03*
D31*
X202440Y22380D03*
D22*
X188740Y22380D03*
D163*
X217840Y22180D03*
D31*
X202240Y22180D03*
D21*
X188640Y22180D03*
D156*
X217740Y21980D03*
D31*
X202240Y21980D03*
D33*
X188640Y21980D03*
D156*
X217540Y21780D03*
D31*
X202040Y21780D03*
D20*
X188540Y21780D03*
D157*
X217440Y21580D03*
D61*
X201940Y21580D03*
D15*
X188440Y21580D03*
D157*
X217240Y21380D03*
D61*
X201740Y21380D03*
D17*
X188240Y21380D03*
D62*
X217140Y21180D03*
D34*
X201640Y21180D03*
D55*
X188140Y21180D03*
D62*
X216940Y20980D03*
D34*
X201440Y20980D03*
D16*
X187940Y20980D03*
D41*
X216840Y20780D03*
D34*
X201240Y20780D03*
D164*
X187940Y20780D03*
D41*
X216640Y20580D03*
D37*
X201140Y20580D03*
D39*
X216540Y20380D03*
D37*
X200940Y20380D03*
D39*
X216340Y20180D03*
D57*
X200840Y20180D03*
D35*
X216240Y19980D03*
D57*
X200640Y19980D03*
D35*
X216040Y19780D03*
D57*
X200440Y19780D03*
D32*
X215940Y19580D03*
D57*
X200240Y19580D03*
D32*
X215740Y19380D03*
D40*
X200040Y19380D03*
D30*
X215640Y19180D03*
D40*
X199840Y19180D03*
D30*
X215440Y18980D03*
D40*
X199640Y18980D03*
D158*
X215240Y18780D03*
D42*
X199440Y18780D03*
D158*
X215040Y18580D03*
D42*
X199240Y18580D03*
D158*
X214840Y18380D03*
D42*
X199040Y18380D03*
D160*
X214640Y18180D03*
D56*
X198740Y18180D03*
D160*
X214440Y17980D03*
D159*
X198540Y17980D03*
D42*
X214240Y17780D03*
D159*
X198340Y17780D03*
D42*
X214040Y17580D03*
D158*
X198040Y17580D03*
D45*
X213740Y17380D03*
D59*
X197740Y17380D03*
D45*
X213540Y17180D03*
D30*
X197440Y17180D03*
D38*
X213340Y16980D03*
D32*
X197140Y16980D03*
D57*
X213040Y16780D03*
D35*
X196840Y16780D03*
D37*
X212940Y16580D03*
D41*
X196440Y16580D03*
D34*
X212640Y16380D03*
D62*
X196140Y16380D03*
D61*
X212340Y16180D03*
D163*
X195640Y16180D03*
D31*
X212040Y15980D03*
D161*
X195240Y15980D03*
D58*
X211840Y15780D03*
D63*
X194740Y15780D03*
D29*
X211540Y15580D03*
D150*
X194140Y15580D03*
D60*
X211240Y15380D03*
D145*
X193340Y15380D03*
D49*
X184340Y15380D03*
D141*
X210840Y15180D03*
D165*
X191640Y15180D03*
D28*
X210540Y14980D03*
D67*
X191540Y14980D03*
D48*
X210140Y14780D03*
D166*
X191440Y14780D03*
D22*
X209740Y14580D03*
D167*
X191340Y14580D03*
D43*
X209340Y14380D03*
D168*
X191240Y14380D03*
D33*
X208840Y14180D03*
D169*
X191140Y14180D03*
D24*
X208440Y13980D03*
D66*
X190940Y13980D03*
D51*
X207740Y13780D03*
D170*
X190840Y13780D03*
D13*
X207040Y13580D03*
D171*
X190740Y13580D03*
D172*
X190540Y13380D03*
D65*
X190440Y13180D03*
D144*
X190240Y12980D03*
D145*
X190140Y12780D03*
D146*
X190040Y12580D03*
D142*
X189840Y12380D03*
D148*
X189640Y12180D03*
D150*
X189540Y11980D03*
D151*
X189340Y11780D03*
D63*
X189140Y11580D03*
D154*
X188940Y11380D03*
D155*
X188740Y11180D03*
D156*
X188540Y10980D03*
D62*
X188340Y10780D03*
D35*
X188040Y10580D03*
D30*
X187840Y10380D03*
D159*
X187540Y10180D03*
D56*
X187340Y9980D03*
D38*
X186940Y9780D03*
D34*
X186640Y9580D03*
D162*
X186340Y9380D03*
D141*
X185840Y9180D03*
D50*
X185440Y8980D03*
D33*
X184640Y8780D03*
M02*
