M48
;GenerationSoftware,Autodesk,EAGLE,9.1.1*%
;CreationDate,2018-08-10T03:37:29Z*%
FMAT,2
ICI,OFF
METRIC,TZ,000.000
T3C0.305
T2C0.889
T1C3.000
%
G90
M71
T1
X27000Y33480
X27000Y3000
T2
X1500Y11490
X1500Y14030
X1500Y16570
X1500Y19110
X28500Y11490
X28500Y14030
X28500Y16570
X28500Y19110
T3
X25400Y12268
X29083Y15316
X14986Y4902
X14986Y5664
X14986Y2870
X14986Y1600
X12522Y3531
X12500Y7391
X12471Y11709
X10644Y7847
X6045Y10516
X6096Y6680
X14097Y8026
X10490Y4140
M30