G04 EAGLE Gerber RS-274X export*
G75*
%MOMM*%
%FSLAX34Y34*%
%LPD*%
%AMOC8*
5,1,8,0,0,1.08239X$1,22.5*%
G01*
%ADD10R,1.651000X1.651000*%
%ADD11C,1.651000*%
%ADD12R,1.270000X0.635000*%
%ADD13C,0.203200*%
%ADD14C,0.609600*%
%ADD15C,0.304800*%

G36*
X249890Y5221D02*
X249890Y5221D01*
X249980Y5226D01*
X250021Y5241D01*
X250064Y5248D01*
X250145Y5287D01*
X250230Y5318D01*
X250264Y5344D01*
X250303Y5363D01*
X250369Y5425D01*
X250441Y5480D01*
X250466Y5515D01*
X250497Y5545D01*
X250542Y5623D01*
X250594Y5696D01*
X250608Y5738D01*
X250629Y5775D01*
X250649Y5863D01*
X250677Y5949D01*
X250678Y5992D01*
X250687Y6035D01*
X250680Y6125D01*
X250681Y6215D01*
X250669Y6257D01*
X250666Y6300D01*
X250632Y6383D01*
X250607Y6470D01*
X250587Y6496D01*
X250567Y6547D01*
X250399Y6753D01*
X250381Y6765D01*
X250372Y6776D01*
X246348Y10153D01*
X240986Y19440D01*
X239124Y30000D01*
X240986Y40560D01*
X246348Y49847D01*
X254562Y56739D01*
X264638Y60407D01*
X275362Y60407D01*
X285438Y56739D01*
X293333Y50115D01*
X293344Y50108D01*
X293353Y50099D01*
X293457Y50039D01*
X293560Y49976D01*
X293572Y49973D01*
X293583Y49967D01*
X293701Y49941D01*
X293818Y49911D01*
X293830Y49912D01*
X293843Y49909D01*
X293963Y49919D01*
X294083Y49925D01*
X294095Y49930D01*
X294108Y49931D01*
X294219Y49975D01*
X294333Y50017D01*
X294343Y50025D01*
X294355Y50030D01*
X294448Y50106D01*
X294544Y50179D01*
X294551Y50189D01*
X294561Y50197D01*
X294628Y50298D01*
X294697Y50396D01*
X294701Y50408D01*
X294708Y50418D01*
X294716Y50453D01*
X294780Y50648D01*
X294782Y50747D01*
X294792Y50795D01*
X294792Y103978D01*
X294777Y104080D01*
X294769Y104182D01*
X294757Y104210D01*
X294752Y104241D01*
X294708Y104333D01*
X294670Y104429D01*
X294650Y104452D01*
X294637Y104480D01*
X294567Y104555D01*
X294502Y104635D01*
X294476Y104652D01*
X294455Y104674D01*
X294366Y104725D01*
X294281Y104782D01*
X294257Y104788D01*
X294225Y104806D01*
X293965Y104864D01*
X293927Y104861D01*
X293904Y104866D01*
X276008Y104866D01*
X274966Y105908D01*
X274966Y123892D01*
X276008Y124934D01*
X293904Y124934D01*
X294006Y124949D01*
X294108Y124957D01*
X294136Y124969D01*
X294167Y124974D01*
X294259Y125018D01*
X294355Y125056D01*
X294378Y125076D01*
X294406Y125089D01*
X294481Y125159D01*
X294561Y125224D01*
X294578Y125250D01*
X294600Y125271D01*
X294651Y125360D01*
X294708Y125445D01*
X294714Y125469D01*
X294732Y125501D01*
X294790Y125761D01*
X294787Y125799D01*
X294792Y125822D01*
X294792Y133758D01*
X294785Y133809D01*
X294786Y133861D01*
X294765Y133940D01*
X294752Y134021D01*
X294730Y134067D01*
X294716Y134117D01*
X294672Y134186D01*
X294637Y134260D01*
X294602Y134298D01*
X294574Y134341D01*
X294511Y134395D01*
X294455Y134454D01*
X294411Y134480D01*
X294371Y134513D01*
X294296Y134546D01*
X294225Y134586D01*
X294174Y134598D01*
X294127Y134618D01*
X294045Y134626D01*
X293965Y134644D01*
X293914Y134640D01*
X293862Y134645D01*
X293782Y134629D01*
X293700Y134623D01*
X293652Y134603D01*
X293602Y134593D01*
X293558Y134566D01*
X293453Y134524D01*
X293314Y134411D01*
X293276Y134386D01*
X290684Y131794D01*
X286996Y130266D01*
X283004Y130266D01*
X279316Y131794D01*
X276494Y134616D01*
X274966Y138304D01*
X274966Y142296D01*
X276494Y145984D01*
X279316Y148806D01*
X283004Y150334D01*
X286996Y150334D01*
X290684Y148806D01*
X293276Y146214D01*
X293317Y146183D01*
X293353Y146146D01*
X293424Y146105D01*
X293490Y146056D01*
X293539Y146039D01*
X293583Y146014D01*
X293663Y145996D01*
X293741Y145969D01*
X293793Y145967D01*
X293843Y145956D01*
X293925Y145962D01*
X294007Y145960D01*
X294056Y145973D01*
X294108Y145977D01*
X294184Y146008D01*
X294263Y146030D01*
X294307Y146057D01*
X294355Y146076D01*
X294418Y146128D01*
X294487Y146172D01*
X294521Y146211D01*
X294561Y146244D01*
X294606Y146312D01*
X294659Y146375D01*
X294680Y146422D01*
X294708Y146465D01*
X294720Y146516D01*
X294764Y146619D01*
X294782Y146798D01*
X294792Y146842D01*
X294792Y159158D01*
X294785Y159209D01*
X294786Y159261D01*
X294765Y159340D01*
X294752Y159421D01*
X294730Y159467D01*
X294716Y159517D01*
X294672Y159586D01*
X294637Y159660D01*
X294602Y159698D01*
X294574Y159741D01*
X294511Y159795D01*
X294455Y159854D01*
X294411Y159880D01*
X294371Y159913D01*
X294296Y159946D01*
X294225Y159986D01*
X294174Y159998D01*
X294127Y160018D01*
X294045Y160026D01*
X293965Y160044D01*
X293914Y160040D01*
X293862Y160045D01*
X293782Y160029D01*
X293700Y160023D01*
X293652Y160003D01*
X293602Y159993D01*
X293558Y159966D01*
X293453Y159924D01*
X293314Y159811D01*
X293276Y159786D01*
X290684Y157194D01*
X286996Y155666D01*
X283004Y155666D01*
X279316Y157194D01*
X276494Y160016D01*
X274966Y163704D01*
X274966Y167696D01*
X276494Y171384D01*
X279316Y174206D01*
X283004Y175734D01*
X286996Y175734D01*
X290684Y174206D01*
X293276Y171614D01*
X293317Y171583D01*
X293353Y171546D01*
X293424Y171505D01*
X293490Y171456D01*
X293539Y171439D01*
X293583Y171414D01*
X293663Y171396D01*
X293741Y171369D01*
X293793Y171367D01*
X293843Y171356D01*
X293925Y171362D01*
X294007Y171360D01*
X294056Y171373D01*
X294108Y171377D01*
X294184Y171408D01*
X294263Y171430D01*
X294307Y171457D01*
X294355Y171476D01*
X294418Y171528D01*
X294487Y171572D01*
X294521Y171611D01*
X294561Y171644D01*
X294606Y171712D01*
X294659Y171775D01*
X294680Y171822D01*
X294708Y171865D01*
X294720Y171916D01*
X294764Y172019D01*
X294782Y172198D01*
X294792Y172242D01*
X294792Y183480D01*
X294785Y183531D01*
X294786Y183583D01*
X294765Y183662D01*
X294752Y183743D01*
X294730Y183790D01*
X294716Y183839D01*
X294672Y183909D01*
X294637Y183983D01*
X294602Y184020D01*
X294574Y184064D01*
X294511Y184117D01*
X294455Y184177D01*
X294411Y184202D01*
X294371Y184236D01*
X294296Y184268D01*
X294225Y184309D01*
X294174Y184320D01*
X294127Y184340D01*
X294045Y184349D01*
X293965Y184367D01*
X293914Y184362D01*
X293862Y184368D01*
X293782Y184352D01*
X293700Y184345D01*
X293652Y184326D01*
X293602Y184316D01*
X293558Y184288D01*
X293453Y184246D01*
X293314Y184133D01*
X293276Y184108D01*
X292033Y182865D01*
X290658Y181867D01*
X289144Y181095D01*
X287528Y180570D01*
X286777Y180451D01*
X286777Y190211D01*
X286762Y190312D01*
X286753Y190415D01*
X286742Y190443D01*
X286737Y190474D01*
X286693Y190566D01*
X286654Y190661D01*
X286635Y190685D01*
X286622Y190713D01*
X286552Y190788D01*
X286487Y190868D01*
X286461Y190885D01*
X286440Y190907D01*
X286351Y190958D01*
X286266Y191015D01*
X286242Y191020D01*
X286210Y191039D01*
X285950Y191097D01*
X285912Y191094D01*
X285889Y191099D01*
X284999Y191099D01*
X284999Y191101D01*
X285889Y191101D01*
X285990Y191116D01*
X286093Y191125D01*
X286121Y191136D01*
X286152Y191141D01*
X286244Y191185D01*
X286339Y191224D01*
X286363Y191243D01*
X286391Y191256D01*
X286466Y191326D01*
X286546Y191391D01*
X286563Y191417D01*
X286585Y191438D01*
X286636Y191527D01*
X286693Y191612D01*
X286699Y191636D01*
X286717Y191669D01*
X286775Y191928D01*
X286772Y191966D01*
X286777Y191989D01*
X286777Y201749D01*
X287528Y201630D01*
X289144Y201105D01*
X290658Y200333D01*
X292033Y199335D01*
X293276Y198092D01*
X293317Y198061D01*
X293353Y198023D01*
X293424Y197982D01*
X293490Y197934D01*
X293539Y197917D01*
X293583Y197891D01*
X293663Y197873D01*
X293741Y197846D01*
X293793Y197845D01*
X293843Y197833D01*
X293925Y197840D01*
X294007Y197837D01*
X294056Y197851D01*
X294108Y197855D01*
X294184Y197886D01*
X294263Y197907D01*
X294307Y197935D01*
X294355Y197954D01*
X294418Y198006D01*
X294487Y198050D01*
X294521Y198089D01*
X294561Y198122D01*
X294606Y198190D01*
X294659Y198252D01*
X294680Y198300D01*
X294708Y198343D01*
X294720Y198393D01*
X294764Y198497D01*
X294782Y198675D01*
X294792Y198720D01*
X294792Y314005D01*
X294790Y314018D01*
X294792Y314030D01*
X294771Y314148D01*
X294752Y314268D01*
X294747Y314279D01*
X294745Y314292D01*
X294689Y314398D01*
X294637Y314507D01*
X294628Y314516D01*
X294622Y314528D01*
X294538Y314613D01*
X294455Y314701D01*
X294444Y314708D01*
X294435Y314717D01*
X294329Y314774D01*
X294225Y314833D01*
X294212Y314836D01*
X294201Y314842D01*
X294082Y314865D01*
X293965Y314891D01*
X293952Y314890D01*
X293940Y314892D01*
X293820Y314879D01*
X293700Y314869D01*
X293688Y314865D01*
X293676Y314863D01*
X293644Y314847D01*
X293453Y314770D01*
X293377Y314708D01*
X293333Y314685D01*
X285438Y308061D01*
X275362Y304393D01*
X264638Y304393D01*
X254562Y308061D01*
X246348Y314953D01*
X240986Y324240D01*
X239124Y334800D01*
X240986Y345360D01*
X246348Y354647D01*
X250372Y358024D01*
X250431Y358091D01*
X250497Y358153D01*
X250519Y358190D01*
X250548Y358223D01*
X250585Y358305D01*
X250629Y358383D01*
X250639Y358426D01*
X250657Y358465D01*
X250668Y358555D01*
X250687Y358643D01*
X250684Y358686D01*
X250689Y358729D01*
X250673Y358818D01*
X250666Y358908D01*
X250649Y358948D01*
X250642Y358991D01*
X250600Y359071D01*
X250567Y359155D01*
X250539Y359188D01*
X250519Y359227D01*
X250456Y359291D01*
X250399Y359361D01*
X250363Y359385D01*
X250332Y359416D01*
X250253Y359458D01*
X250178Y359508D01*
X250146Y359515D01*
X250098Y359541D01*
X249837Y359592D01*
X249815Y359589D01*
X249801Y359592D01*
X6096Y359592D01*
X5994Y359577D01*
X5892Y359569D01*
X5864Y359557D01*
X5833Y359552D01*
X5741Y359508D01*
X5645Y359470D01*
X5622Y359450D01*
X5594Y359437D01*
X5519Y359367D01*
X5439Y359302D01*
X5422Y359276D01*
X5400Y359255D01*
X5349Y359166D01*
X5292Y359081D01*
X5286Y359057D01*
X5268Y359025D01*
X5210Y358765D01*
X5213Y358727D01*
X5208Y358704D01*
X5208Y198720D01*
X5215Y198669D01*
X5214Y198617D01*
X5235Y198538D01*
X5248Y198457D01*
X5270Y198410D01*
X5284Y198361D01*
X5328Y198291D01*
X5363Y198217D01*
X5398Y198180D01*
X5426Y198136D01*
X5489Y198083D01*
X5545Y198023D01*
X5589Y197998D01*
X5629Y197964D01*
X5704Y197932D01*
X5775Y197891D01*
X5826Y197880D01*
X5873Y197860D01*
X5955Y197851D01*
X6035Y197833D01*
X6086Y197838D01*
X6138Y197832D01*
X6218Y197848D01*
X6300Y197855D01*
X6348Y197874D01*
X6398Y197884D01*
X6442Y197912D01*
X6547Y197954D01*
X6686Y198067D01*
X6724Y198092D01*
X7967Y199335D01*
X9342Y200333D01*
X10856Y201105D01*
X12472Y201630D01*
X13223Y201749D01*
X13223Y191989D01*
X13238Y191888D01*
X13246Y191785D01*
X13258Y191757D01*
X13263Y191726D01*
X13307Y191634D01*
X13345Y191539D01*
X13365Y191515D01*
X13378Y191487D01*
X13448Y191412D01*
X13513Y191332D01*
X13539Y191315D01*
X13560Y191293D01*
X13649Y191242D01*
X13734Y191185D01*
X13758Y191180D01*
X13790Y191161D01*
X14050Y191103D01*
X14088Y191106D01*
X14111Y191101D01*
X15001Y191101D01*
X15001Y191099D01*
X14111Y191099D01*
X14009Y191084D01*
X13907Y191075D01*
X13879Y191064D01*
X13848Y191059D01*
X13756Y191015D01*
X13660Y190976D01*
X13637Y190957D01*
X13609Y190944D01*
X13534Y190874D01*
X13454Y190809D01*
X13437Y190783D01*
X13415Y190762D01*
X13364Y190673D01*
X13307Y190588D01*
X13301Y190564D01*
X13283Y190531D01*
X13225Y190272D01*
X13228Y190234D01*
X13223Y190211D01*
X13223Y180451D01*
X12472Y180570D01*
X10856Y181095D01*
X9342Y181867D01*
X7967Y182865D01*
X6724Y184108D01*
X6683Y184139D01*
X6647Y184177D01*
X6576Y184218D01*
X6510Y184266D01*
X6461Y184283D01*
X6417Y184309D01*
X6337Y184327D01*
X6259Y184354D01*
X6207Y184355D01*
X6157Y184367D01*
X6075Y184360D01*
X5993Y184363D01*
X5944Y184349D01*
X5892Y184345D01*
X5816Y184314D01*
X5737Y184293D01*
X5693Y184265D01*
X5645Y184246D01*
X5582Y184194D01*
X5513Y184150D01*
X5479Y184111D01*
X5439Y184078D01*
X5394Y184010D01*
X5341Y183948D01*
X5320Y183900D01*
X5292Y183857D01*
X5280Y183807D01*
X5236Y183703D01*
X5218Y183525D01*
X5208Y183480D01*
X5208Y172242D01*
X5215Y172191D01*
X5214Y172139D01*
X5235Y172060D01*
X5248Y171979D01*
X5270Y171933D01*
X5284Y171883D01*
X5328Y171814D01*
X5363Y171740D01*
X5398Y171702D01*
X5426Y171659D01*
X5489Y171605D01*
X5545Y171546D01*
X5589Y171520D01*
X5629Y171487D01*
X5704Y171454D01*
X5775Y171414D01*
X5826Y171402D01*
X5873Y171382D01*
X5955Y171374D01*
X6035Y171356D01*
X6086Y171360D01*
X6138Y171355D01*
X6218Y171371D01*
X6300Y171377D01*
X6348Y171397D01*
X6398Y171407D01*
X6442Y171434D01*
X6547Y171476D01*
X6686Y171589D01*
X6724Y171614D01*
X9316Y174206D01*
X13004Y175734D01*
X16996Y175734D01*
X20684Y174206D01*
X23506Y171384D01*
X25034Y167696D01*
X25034Y163704D01*
X24275Y161872D01*
X24273Y161865D01*
X24270Y161860D01*
X24259Y161809D01*
X24235Y161754D01*
X24228Y161683D01*
X24211Y161614D01*
X24214Y161552D01*
X24208Y161490D01*
X24222Y161420D01*
X24226Y161348D01*
X24248Y161290D01*
X24260Y161229D01*
X24286Y161189D01*
X24319Y161099D01*
X24450Y160930D01*
X24467Y160904D01*
X31588Y153783D01*
X33783Y151588D01*
X33783Y97494D01*
X33786Y97473D01*
X33784Y97452D01*
X33806Y97342D01*
X33823Y97231D01*
X33832Y97212D01*
X33836Y97192D01*
X33860Y97153D01*
X33938Y96992D01*
X34015Y96909D01*
X34043Y96866D01*
X41306Y89603D01*
X41322Y89591D01*
X41336Y89574D01*
X41429Y89512D01*
X41519Y89446D01*
X41539Y89439D01*
X41557Y89427D01*
X41601Y89417D01*
X41771Y89358D01*
X41883Y89354D01*
X41934Y89343D01*
X51233Y89343D01*
X51335Y89358D01*
X51437Y89367D01*
X51465Y89378D01*
X51496Y89383D01*
X51588Y89428D01*
X51684Y89466D01*
X51707Y89485D01*
X51735Y89499D01*
X51810Y89569D01*
X51890Y89633D01*
X51907Y89659D01*
X51929Y89680D01*
X51980Y89769D01*
X52037Y89855D01*
X52043Y89878D01*
X52061Y89911D01*
X52119Y90170D01*
X52116Y90208D01*
X52121Y90231D01*
X52121Y97654D01*
X53163Y98696D01*
X56567Y98696D01*
X56669Y98711D01*
X56771Y98719D01*
X56799Y98731D01*
X56830Y98736D01*
X56922Y98780D01*
X57018Y98818D01*
X57041Y98838D01*
X57069Y98851D01*
X57144Y98921D01*
X57224Y98986D01*
X57241Y99012D01*
X57263Y99033D01*
X57314Y99122D01*
X57371Y99207D01*
X57377Y99231D01*
X57395Y99263D01*
X57453Y99523D01*
X57450Y99561D01*
X57455Y99584D01*
X57455Y100959D01*
X57452Y100980D01*
X57454Y101000D01*
X57432Y101111D01*
X57415Y101222D01*
X57406Y101240D01*
X57402Y101261D01*
X57378Y101300D01*
X57300Y101461D01*
X57223Y101543D01*
X57195Y101587D01*
X55625Y103157D01*
X55625Y107155D01*
X58453Y109983D01*
X62451Y109983D01*
X65279Y107155D01*
X65279Y103157D01*
X63305Y101183D01*
X63292Y101166D01*
X63276Y101153D01*
X63214Y101059D01*
X63147Y100969D01*
X63140Y100949D01*
X63129Y100932D01*
X63119Y100887D01*
X63060Y100718D01*
X63056Y100605D01*
X63045Y100555D01*
X63045Y99584D01*
X63060Y99482D01*
X63068Y99380D01*
X63080Y99352D01*
X63085Y99321D01*
X63129Y99229D01*
X63167Y99133D01*
X63187Y99110D01*
X63200Y99082D01*
X63270Y99007D01*
X63335Y98927D01*
X63361Y98910D01*
X63382Y98888D01*
X63471Y98837D01*
X63556Y98780D01*
X63580Y98774D01*
X63612Y98756D01*
X63872Y98698D01*
X63910Y98701D01*
X63933Y98696D01*
X67337Y98696D01*
X68379Y97654D01*
X68379Y89805D01*
X68394Y89703D01*
X68402Y89601D01*
X68414Y89573D01*
X68419Y89542D01*
X68463Y89450D01*
X68501Y89354D01*
X68521Y89331D01*
X68534Y89303D01*
X68604Y89228D01*
X68669Y89148D01*
X68695Y89131D01*
X68716Y89109D01*
X68805Y89058D01*
X68890Y89001D01*
X68914Y88995D01*
X68946Y88977D01*
X69206Y88919D01*
X69244Y88922D01*
X69267Y88917D01*
X85680Y88917D01*
X103724Y70873D01*
X103741Y70860D01*
X103754Y70844D01*
X103848Y70782D01*
X103938Y70715D01*
X103958Y70708D01*
X103975Y70697D01*
X104020Y70687D01*
X104189Y70628D01*
X104302Y70624D01*
X104352Y70613D01*
X105452Y70613D01*
X105473Y70616D01*
X105494Y70614D01*
X105604Y70636D01*
X105715Y70653D01*
X105734Y70662D01*
X105754Y70666D01*
X105793Y70690D01*
X105954Y70768D01*
X106037Y70845D01*
X106080Y70873D01*
X107334Y72127D01*
X107358Y72160D01*
X107362Y72163D01*
X107366Y72169D01*
X107403Y72204D01*
X107443Y72275D01*
X107492Y72341D01*
X107509Y72390D01*
X107534Y72434D01*
X107552Y72514D01*
X107579Y72592D01*
X107581Y72644D01*
X107592Y72694D01*
X107586Y72776D01*
X107588Y72858D01*
X107575Y72907D01*
X107571Y72959D01*
X107540Y73035D01*
X107519Y73114D01*
X107491Y73158D01*
X107472Y73206D01*
X107420Y73269D01*
X107376Y73338D01*
X107337Y73372D01*
X107304Y73412D01*
X107236Y73457D01*
X107173Y73510D01*
X107126Y73531D01*
X107083Y73559D01*
X107033Y73571D01*
X106929Y73615D01*
X106751Y73633D01*
X106706Y73643D01*
X104443Y73643D01*
X101615Y76471D01*
X101615Y80469D01*
X103387Y82241D01*
X103400Y82258D01*
X103416Y82271D01*
X103478Y82365D01*
X103545Y82455D01*
X103552Y82475D01*
X103563Y82492D01*
X103573Y82537D01*
X103632Y82706D01*
X103636Y82819D01*
X103647Y82869D01*
X103647Y99980D01*
X119627Y115959D01*
X119640Y115976D01*
X119656Y115990D01*
X119718Y116083D01*
X119785Y116173D01*
X119792Y116193D01*
X119803Y116211D01*
X119813Y116255D01*
X119872Y116424D01*
X119876Y116537D01*
X119887Y116588D01*
X119887Y119093D01*
X122715Y121921D01*
X126713Y121921D01*
X129541Y119093D01*
X129541Y115095D01*
X126713Y112267D01*
X124208Y112267D01*
X124187Y112264D01*
X124166Y112266D01*
X124056Y112244D01*
X123945Y112227D01*
X123926Y112218D01*
X123905Y112214D01*
X123867Y112190D01*
X123705Y112112D01*
X123623Y112035D01*
X123579Y112007D01*
X109497Y97925D01*
X109484Y97908D01*
X109468Y97894D01*
X109406Y97801D01*
X109339Y97711D01*
X109332Y97691D01*
X109321Y97673D01*
X109311Y97629D01*
X109252Y97460D01*
X109248Y97347D01*
X109237Y97296D01*
X109237Y82869D01*
X109240Y82849D01*
X109238Y82828D01*
X109260Y82717D01*
X109277Y82606D01*
X109286Y82588D01*
X109290Y82567D01*
X109314Y82528D01*
X109392Y82367D01*
X109469Y82285D01*
X109497Y82241D01*
X111269Y80469D01*
X111269Y78206D01*
X111276Y78155D01*
X111275Y78103D01*
X111296Y78024D01*
X111309Y77943D01*
X111331Y77897D01*
X111345Y77847D01*
X111389Y77778D01*
X111424Y77704D01*
X111459Y77666D01*
X111487Y77623D01*
X111550Y77569D01*
X111606Y77509D01*
X111650Y77484D01*
X111690Y77450D01*
X111765Y77418D01*
X111836Y77378D01*
X111887Y77366D01*
X111934Y77346D01*
X112016Y77338D01*
X112096Y77320D01*
X112147Y77324D01*
X112199Y77319D01*
X112279Y77335D01*
X112361Y77341D01*
X112409Y77361D01*
X112459Y77371D01*
X112503Y77398D01*
X112608Y77440D01*
X112747Y77553D01*
X112785Y77578D01*
X118774Y83567D01*
X137079Y83567D01*
X137099Y83570D01*
X137120Y83568D01*
X137231Y83590D01*
X137342Y83607D01*
X137360Y83616D01*
X137381Y83620D01*
X137420Y83644D01*
X137581Y83722D01*
X137663Y83799D01*
X137707Y83827D01*
X138971Y85091D01*
X142969Y85091D01*
X145797Y82263D01*
X145797Y78265D01*
X142969Y75437D01*
X138971Y75437D01*
X137707Y76701D01*
X137690Y76714D01*
X137677Y76730D01*
X137583Y76792D01*
X137493Y76859D01*
X137473Y76866D01*
X137456Y76877D01*
X137411Y76887D01*
X137242Y76946D01*
X137129Y76950D01*
X137079Y76961D01*
X130715Y76961D01*
X130613Y76946D01*
X130511Y76938D01*
X130483Y76926D01*
X130452Y76921D01*
X130360Y76877D01*
X130264Y76839D01*
X130241Y76819D01*
X130213Y76806D01*
X130138Y76736D01*
X130058Y76671D01*
X130041Y76645D01*
X130019Y76624D01*
X129968Y76535D01*
X129911Y76450D01*
X129905Y76426D01*
X129887Y76394D01*
X129829Y76134D01*
X129832Y76096D01*
X129827Y76073D01*
X129827Y71915D01*
X128277Y70365D01*
X128264Y70348D01*
X128248Y70335D01*
X128186Y70241D01*
X128119Y70151D01*
X128112Y70131D01*
X128101Y70114D01*
X128091Y70069D01*
X128032Y69900D01*
X128028Y69787D01*
X128017Y69737D01*
X128017Y39705D01*
X128020Y39685D01*
X128018Y39664D01*
X128040Y39553D01*
X128057Y39442D01*
X128066Y39424D01*
X128070Y39403D01*
X128094Y39364D01*
X128172Y39203D01*
X128249Y39121D01*
X128277Y39077D01*
X130049Y37305D01*
X130049Y33307D01*
X127221Y30479D01*
X123223Y30479D01*
X120395Y33307D01*
X120395Y37305D01*
X122167Y39077D01*
X122180Y39094D01*
X122196Y39107D01*
X122258Y39201D01*
X122325Y39291D01*
X122332Y39311D01*
X122343Y39328D01*
X122353Y39373D01*
X122412Y39542D01*
X122416Y39655D01*
X122427Y39705D01*
X122427Y69293D01*
X122424Y69313D01*
X122426Y69334D01*
X122404Y69445D01*
X122387Y69556D01*
X122378Y69574D01*
X122374Y69595D01*
X122350Y69634D01*
X122272Y69795D01*
X122195Y69877D01*
X122167Y69921D01*
X120173Y71915D01*
X120173Y73480D01*
X120166Y73531D01*
X120167Y73583D01*
X120146Y73662D01*
X120133Y73743D01*
X120111Y73789D01*
X120097Y73839D01*
X120053Y73908D01*
X120018Y73982D01*
X119983Y74020D01*
X119955Y74063D01*
X119892Y74117D01*
X119836Y74177D01*
X119792Y74202D01*
X119752Y74236D01*
X119677Y74268D01*
X119606Y74308D01*
X119555Y74320D01*
X119508Y74340D01*
X119426Y74348D01*
X119346Y74366D01*
X119295Y74362D01*
X119243Y74367D01*
X119163Y74351D01*
X119081Y74345D01*
X119033Y74325D01*
X118983Y74315D01*
X118939Y74288D01*
X118834Y74246D01*
X118695Y74133D01*
X118657Y74108D01*
X110370Y65821D01*
X108465Y63916D01*
X108452Y63899D01*
X108436Y63886D01*
X108374Y63792D01*
X108307Y63702D01*
X108300Y63682D01*
X108289Y63665D01*
X108279Y63620D01*
X108220Y63451D01*
X108216Y63338D01*
X108205Y63288D01*
X108205Y45293D01*
X108208Y45273D01*
X108206Y45252D01*
X108228Y45141D01*
X108245Y45030D01*
X108254Y45012D01*
X108258Y44991D01*
X108282Y44952D01*
X108360Y44791D01*
X108437Y44709D01*
X108465Y44665D01*
X109729Y43401D01*
X109729Y39403D01*
X106901Y36575D01*
X102903Y36575D01*
X100075Y39403D01*
X100075Y43401D01*
X101339Y44665D01*
X101352Y44682D01*
X101368Y44695D01*
X101430Y44789D01*
X101497Y44879D01*
X101504Y44899D01*
X101515Y44916D01*
X101525Y44961D01*
X101584Y45130D01*
X101588Y45243D01*
X101599Y45293D01*
X101599Y63288D01*
X101596Y63309D01*
X101598Y63330D01*
X101576Y63440D01*
X101559Y63551D01*
X101550Y63570D01*
X101546Y63590D01*
X101522Y63629D01*
X101444Y63790D01*
X101367Y63873D01*
X101339Y63916D01*
X83204Y82051D01*
X83187Y82064D01*
X83174Y82080D01*
X83080Y82142D01*
X82990Y82209D01*
X82970Y82216D01*
X82953Y82227D01*
X82908Y82237D01*
X82739Y82296D01*
X82626Y82300D01*
X82576Y82311D01*
X69267Y82311D01*
X69165Y82296D01*
X69063Y82288D01*
X69035Y82276D01*
X69004Y82271D01*
X68912Y82227D01*
X68816Y82189D01*
X68793Y82169D01*
X68765Y82156D01*
X68690Y82086D01*
X68610Y82021D01*
X68593Y81995D01*
X68571Y81974D01*
X68520Y81885D01*
X68463Y81800D01*
X68457Y81776D01*
X68439Y81744D01*
X68381Y81484D01*
X68384Y81446D01*
X68379Y81423D01*
X68379Y73574D01*
X67337Y72532D01*
X64200Y72532D01*
X64149Y72525D01*
X64098Y72526D01*
X64018Y72505D01*
X63937Y72492D01*
X63891Y72470D01*
X63841Y72456D01*
X63772Y72412D01*
X63698Y72377D01*
X63660Y72342D01*
X63617Y72314D01*
X63564Y72251D01*
X63504Y72195D01*
X63478Y72151D01*
X63445Y72111D01*
X63412Y72036D01*
X63372Y71965D01*
X63361Y71914D01*
X63340Y71867D01*
X63332Y71785D01*
X63314Y71705D01*
X63318Y71654D01*
X63313Y71602D01*
X63329Y71522D01*
X63336Y71440D01*
X63355Y71392D01*
X63365Y71342D01*
X63393Y71298D01*
X63435Y71193D01*
X63548Y71054D01*
X63572Y71016D01*
X65787Y68801D01*
X65787Y64803D01*
X62959Y61975D01*
X58961Y61975D01*
X56133Y64803D01*
X56133Y68801D01*
X57195Y69863D01*
X57208Y69880D01*
X57224Y69893D01*
X57286Y69987D01*
X57353Y70077D01*
X57360Y70097D01*
X57371Y70114D01*
X57381Y70159D01*
X57440Y70328D01*
X57444Y70441D01*
X57455Y70491D01*
X57455Y71644D01*
X57440Y71746D01*
X57432Y71848D01*
X57420Y71876D01*
X57415Y71907D01*
X57371Y71999D01*
X57333Y72095D01*
X57313Y72118D01*
X57300Y72146D01*
X57230Y72221D01*
X57165Y72301D01*
X57139Y72318D01*
X57118Y72340D01*
X57029Y72391D01*
X56944Y72448D01*
X56920Y72454D01*
X56888Y72472D01*
X56628Y72530D01*
X56590Y72527D01*
X56567Y72532D01*
X53163Y72532D01*
X52121Y73574D01*
X52121Y81849D01*
X52106Y81951D01*
X52098Y82053D01*
X52086Y82082D01*
X52081Y82112D01*
X52037Y82204D01*
X51999Y82300D01*
X51979Y82324D01*
X51966Y82351D01*
X51896Y82426D01*
X51831Y82506D01*
X51805Y82523D01*
X51784Y82546D01*
X51695Y82597D01*
X51610Y82654D01*
X51586Y82659D01*
X51554Y82678D01*
X51294Y82736D01*
X51256Y82732D01*
X51233Y82738D01*
X38830Y82738D01*
X36635Y84932D01*
X27177Y94390D01*
X27177Y148484D01*
X27174Y148505D01*
X27176Y148526D01*
X27154Y148636D01*
X27137Y148747D01*
X27128Y148766D01*
X27124Y148786D01*
X27100Y148825D01*
X27022Y148986D01*
X26945Y149069D01*
X26917Y149112D01*
X19796Y156233D01*
X19747Y156270D01*
X19703Y156314D01*
X19640Y156348D01*
X19582Y156391D01*
X19524Y156411D01*
X19469Y156440D01*
X19399Y156454D01*
X19331Y156478D01*
X19269Y156480D01*
X19209Y156492D01*
X19161Y156484D01*
X19066Y156487D01*
X18859Y156431D01*
X18828Y156425D01*
X16996Y155666D01*
X13004Y155666D01*
X9316Y157194D01*
X6724Y159786D01*
X6683Y159817D01*
X6647Y159854D01*
X6576Y159895D01*
X6510Y159944D01*
X6461Y159961D01*
X6417Y159986D01*
X6337Y160004D01*
X6259Y160031D01*
X6207Y160033D01*
X6157Y160044D01*
X6075Y160038D01*
X5993Y160040D01*
X5944Y160027D01*
X5892Y160023D01*
X5816Y159992D01*
X5737Y159970D01*
X5693Y159943D01*
X5645Y159924D01*
X5582Y159872D01*
X5513Y159828D01*
X5479Y159789D01*
X5439Y159756D01*
X5394Y159688D01*
X5341Y159625D01*
X5320Y159578D01*
X5292Y159535D01*
X5280Y159484D01*
X5236Y159381D01*
X5218Y159202D01*
X5208Y159158D01*
X5208Y146842D01*
X5215Y146791D01*
X5214Y146739D01*
X5235Y146660D01*
X5248Y146579D01*
X5270Y146533D01*
X5284Y146483D01*
X5328Y146414D01*
X5363Y146340D01*
X5398Y146302D01*
X5426Y146259D01*
X5489Y146205D01*
X5545Y146146D01*
X5589Y146120D01*
X5629Y146087D01*
X5704Y146054D01*
X5775Y146014D01*
X5826Y146002D01*
X5873Y145982D01*
X5955Y145974D01*
X6035Y145956D01*
X6086Y145960D01*
X6138Y145955D01*
X6218Y145971D01*
X6300Y145977D01*
X6348Y145997D01*
X6398Y146007D01*
X6442Y146034D01*
X6547Y146076D01*
X6686Y146189D01*
X6724Y146214D01*
X9316Y148806D01*
X13004Y150334D01*
X16996Y150334D01*
X20684Y148806D01*
X23506Y145984D01*
X25034Y142296D01*
X25034Y138304D01*
X23506Y134616D01*
X20684Y131794D01*
X16996Y130266D01*
X13004Y130266D01*
X9316Y131794D01*
X6724Y134386D01*
X6683Y134417D01*
X6647Y134454D01*
X6576Y134495D01*
X6510Y134544D01*
X6461Y134561D01*
X6417Y134586D01*
X6337Y134604D01*
X6259Y134631D01*
X6207Y134633D01*
X6157Y134644D01*
X6075Y134638D01*
X5993Y134640D01*
X5944Y134627D01*
X5892Y134623D01*
X5816Y134592D01*
X5737Y134570D01*
X5693Y134543D01*
X5645Y134524D01*
X5582Y134472D01*
X5513Y134428D01*
X5479Y134389D01*
X5439Y134356D01*
X5394Y134288D01*
X5341Y134225D01*
X5320Y134178D01*
X5292Y134135D01*
X5280Y134084D01*
X5236Y133981D01*
X5218Y133802D01*
X5208Y133758D01*
X5208Y125822D01*
X5223Y125720D01*
X5231Y125618D01*
X5243Y125590D01*
X5248Y125559D01*
X5292Y125467D01*
X5330Y125371D01*
X5350Y125348D01*
X5363Y125320D01*
X5433Y125245D01*
X5498Y125165D01*
X5524Y125148D01*
X5545Y125126D01*
X5634Y125075D01*
X5719Y125018D01*
X5743Y125012D01*
X5775Y124994D01*
X6035Y124936D01*
X6073Y124939D01*
X6096Y124934D01*
X23992Y124934D01*
X25034Y123892D01*
X25034Y105908D01*
X23992Y104866D01*
X6096Y104866D01*
X5994Y104851D01*
X5892Y104843D01*
X5864Y104831D01*
X5833Y104826D01*
X5741Y104782D01*
X5645Y104744D01*
X5622Y104724D01*
X5594Y104711D01*
X5519Y104641D01*
X5439Y104576D01*
X5422Y104550D01*
X5400Y104529D01*
X5349Y104440D01*
X5292Y104355D01*
X5286Y104331D01*
X5268Y104299D01*
X5210Y104039D01*
X5213Y104001D01*
X5208Y103978D01*
X5208Y6096D01*
X5223Y5994D01*
X5231Y5892D01*
X5243Y5864D01*
X5248Y5833D01*
X5292Y5741D01*
X5330Y5645D01*
X5350Y5622D01*
X5363Y5594D01*
X5433Y5519D01*
X5498Y5439D01*
X5524Y5422D01*
X5545Y5400D01*
X5634Y5349D01*
X5719Y5292D01*
X5743Y5286D01*
X5775Y5268D01*
X6035Y5210D01*
X6073Y5213D01*
X6096Y5208D01*
X249801Y5208D01*
X249890Y5221D01*
G37*
%LPC*%
G36*
X16777Y192877D02*
X16777Y192877D01*
X16777Y201749D01*
X17528Y201630D01*
X19144Y201105D01*
X20658Y200333D01*
X22033Y199335D01*
X23235Y198133D01*
X24233Y196758D01*
X25005Y195244D01*
X25530Y193628D01*
X25649Y192877D01*
X16777Y192877D01*
G37*
%LPD*%
%LPC*%
G36*
X274351Y192877D02*
X274351Y192877D01*
X274470Y193628D01*
X274995Y195244D01*
X275767Y196758D01*
X276765Y198133D01*
X277967Y199335D01*
X279342Y200333D01*
X280856Y201105D01*
X282472Y201630D01*
X283223Y201749D01*
X283223Y192877D01*
X274351Y192877D01*
G37*
%LPD*%
%LPC*%
G36*
X16777Y189323D02*
X16777Y189323D01*
X25649Y189323D01*
X25530Y188572D01*
X25005Y186956D01*
X24233Y185442D01*
X23235Y184067D01*
X22033Y182865D01*
X20658Y181867D01*
X19144Y181095D01*
X17528Y180570D01*
X16777Y180451D01*
X16777Y189323D01*
G37*
%LPD*%
%LPC*%
G36*
X282472Y180570D02*
X282472Y180570D01*
X280856Y181095D01*
X279342Y181867D01*
X277967Y182865D01*
X276765Y184067D01*
X275767Y185442D01*
X274995Y186956D01*
X274470Y188572D01*
X274351Y189323D01*
X283223Y189323D01*
X283223Y180451D01*
X282472Y180570D01*
G37*
%LPD*%
D10*
X15000Y114900D03*
D11*
X15000Y140300D03*
X15000Y165700D03*
X15000Y191100D03*
D10*
X285000Y114900D03*
D11*
X285000Y140300D03*
X285000Y165700D03*
X285000Y191100D03*
D12*
X60250Y77486D03*
X60250Y85614D03*
X60250Y93742D03*
D13*
X60250Y85614D02*
X60250Y77232D01*
X60250Y85614D02*
X60250Y94250D01*
D14*
X254000Y122682D03*
X290830Y153162D03*
X149860Y49022D03*
X149860Y56642D03*
X149860Y28702D03*
X149860Y16002D03*
X125222Y35306D03*
D13*
X125222Y73692D01*
X125000Y73914D01*
D14*
X125000Y73914D03*
X124714Y117094D03*
D13*
X106442Y98822D01*
X106442Y78470D01*
D14*
X106442Y78470D03*
D13*
X60250Y93742D02*
X60250Y104954D01*
X60452Y105156D01*
D14*
X60452Y105156D03*
X60960Y66802D03*
D13*
X60250Y67512D02*
X60250Y77486D01*
X60250Y67512D02*
X60960Y66802D01*
D15*
X30480Y150220D02*
X15000Y165700D01*
X30480Y150220D02*
X30480Y95758D01*
X40198Y86040D01*
D14*
X140970Y80264D03*
D15*
X120142Y80264D01*
X104902Y65024D02*
X104902Y41402D01*
D14*
X104902Y41402D03*
D15*
X106807Y66929D02*
X120142Y80264D01*
X106807Y66929D02*
X104902Y65024D01*
X102616Y67310D01*
X106426Y67310D01*
X106807Y66929D01*
X60250Y85614D02*
X59824Y86040D01*
X40198Y86040D01*
X60250Y85614D02*
X84312Y85614D01*
X102616Y67310D01*
M02*
