G04 EAGLE Gerber RS-274X export*
G75*
%MOMM*%
%FSLAX34Y34*%
%LPD*%
%AMOC8*
5,1,8,0,0,1.08239X$1,22.5*%
G01*
%ADD10C,0.101600*%
%ADD11C,0.076200*%
%ADD12C,0.127000*%
%ADD13C,0.400000*%
%ADD14C,0.254000*%


D10*
X222972Y117355D02*
X224497Y118880D01*
X227548Y118880D01*
X229073Y117355D01*
X229073Y115829D01*
X227548Y114304D01*
X226023Y114304D01*
X227548Y114304D02*
X229073Y112779D01*
X229073Y111253D01*
X227548Y109728D01*
X224497Y109728D01*
X222972Y111253D01*
X232327Y109728D02*
X238428Y109728D01*
X232327Y109728D02*
X238428Y115829D01*
X238428Y117355D01*
X236903Y118880D01*
X233853Y118880D01*
X232327Y117355D01*
X241682Y118880D02*
X241682Y109728D01*
X241682Y112779D02*
X247784Y118880D01*
X243208Y114304D02*
X247784Y109728D01*
X251038Y109728D02*
X251038Y118880D01*
X251038Y114304D02*
X257139Y114304D01*
X257139Y118880D02*
X257139Y109728D01*
X260393Y118880D02*
X266494Y118880D01*
X266494Y117355D01*
X260393Y111253D01*
X260393Y109728D01*
X266494Y109728D01*
D11*
X222184Y137033D02*
X219727Y137033D01*
X220955Y137033D02*
X220955Y144405D01*
X219727Y144405D02*
X222184Y144405D01*
X224716Y144405D02*
X224716Y137033D01*
X229631Y137033D02*
X224716Y144405D01*
X229631Y144405D02*
X229631Y137033D01*
X234658Y137033D02*
X234658Y144405D01*
X237115Y144405D02*
X232200Y144405D01*
X239684Y137033D02*
X244599Y144405D01*
X250855Y144405D02*
X252083Y143177D01*
X250855Y144405D02*
X248397Y144405D01*
X247169Y143177D01*
X247169Y141948D01*
X248397Y140719D01*
X250855Y140719D01*
X252083Y139490D01*
X252083Y138262D01*
X250855Y137033D01*
X248397Y137033D01*
X247169Y138262D01*
X254653Y138262D02*
X254653Y143177D01*
X255881Y144405D01*
X258339Y144405D01*
X259568Y143177D01*
X259568Y138262D01*
X258339Y137033D01*
X255881Y137033D01*
X254653Y138262D01*
X257110Y139490D02*
X259568Y137033D01*
X262137Y137033D02*
X262137Y144405D01*
X264594Y139490D02*
X262137Y137033D01*
X264594Y139490D02*
X267052Y137033D01*
X267052Y144405D01*
D10*
X241682Y160528D02*
X241682Y169680D01*
X246258Y169680D01*
X247784Y168155D01*
X247784Y165104D01*
X246258Y163579D01*
X241682Y163579D01*
X244733Y163579D02*
X247784Y160528D01*
X255614Y169680D02*
X257139Y168155D01*
X255614Y169680D02*
X252563Y169680D01*
X251038Y168155D01*
X251038Y166629D01*
X252563Y165104D01*
X255614Y165104D01*
X257139Y163579D01*
X257139Y162053D01*
X255614Y160528D01*
X252563Y160528D01*
X251038Y162053D01*
X263443Y160528D02*
X263443Y169680D01*
X260393Y169680D02*
X266494Y169680D01*
X247784Y193555D02*
X246258Y195080D01*
X243208Y195080D01*
X241682Y193555D01*
X241682Y187453D01*
X243208Y185928D01*
X246258Y185928D01*
X247784Y187453D01*
X247784Y190504D01*
X244733Y190504D01*
X251038Y185928D02*
X251038Y195080D01*
X257139Y185928D01*
X257139Y195080D01*
X260393Y195080D02*
X260393Y185928D01*
X264969Y185928D01*
X266494Y187453D01*
X266494Y193555D01*
X264969Y195080D01*
X260393Y195080D01*
X37089Y193555D02*
X35564Y195080D01*
X32513Y195080D01*
X30988Y193555D01*
X30988Y187453D01*
X32513Y185928D01*
X35564Y185928D01*
X37089Y187453D01*
X37089Y190504D01*
X34039Y190504D01*
X40343Y185928D02*
X40343Y195080D01*
X46444Y185928D01*
X46444Y195080D01*
X49698Y195080D02*
X49698Y185928D01*
X54274Y185928D01*
X55800Y187453D01*
X55800Y193555D01*
X54274Y195080D01*
X49698Y195080D01*
X30988Y169680D02*
X30988Y163579D01*
X34039Y160528D01*
X37089Y163579D01*
X37089Y169680D01*
X44919Y169680D02*
X46444Y168155D01*
X44919Y169680D02*
X41868Y169680D01*
X40343Y168155D01*
X40343Y162053D01*
X41868Y160528D01*
X44919Y160528D01*
X46444Y162053D01*
X54274Y169680D02*
X55800Y168155D01*
X54274Y169680D02*
X51224Y169680D01*
X49698Y168155D01*
X49698Y162053D01*
X51224Y160528D01*
X54274Y160528D01*
X55800Y162053D01*
X37089Y142755D02*
X35564Y144280D01*
X32513Y144280D01*
X30988Y142755D01*
X30988Y141229D01*
X32513Y139704D01*
X35564Y139704D01*
X37089Y138179D01*
X37089Y136653D01*
X35564Y135128D01*
X32513Y135128D01*
X30988Y136653D01*
X40343Y135128D02*
X40343Y144280D01*
X40343Y135128D02*
X44919Y135128D01*
X46444Y136653D01*
X46444Y142755D01*
X44919Y144280D01*
X40343Y144280D01*
X49698Y141229D02*
X49698Y135128D01*
X49698Y141229D02*
X52749Y144280D01*
X55800Y141229D01*
X55800Y135128D01*
X55800Y139704D02*
X49698Y139704D01*
X35564Y118880D02*
X37089Y117355D01*
X35564Y118880D02*
X32513Y118880D01*
X30988Y117355D01*
X30988Y115829D01*
X32513Y114304D01*
X35564Y114304D01*
X37089Y112779D01*
X37089Y111253D01*
X35564Y109728D01*
X32513Y109728D01*
X30988Y111253D01*
X44919Y118880D02*
X46444Y117355D01*
X44919Y118880D02*
X41868Y118880D01*
X40343Y117355D01*
X40343Y111253D01*
X41868Y109728D01*
X44919Y109728D01*
X46444Y111253D01*
X49698Y109728D02*
X49698Y118880D01*
X49698Y109728D02*
X55800Y109728D01*
X91948Y69095D02*
X91948Y62993D01*
X91948Y69095D02*
X93473Y70620D01*
X96524Y70620D01*
X98049Y69095D01*
X98049Y62993D01*
X96524Y61468D01*
X93473Y61468D01*
X91948Y62993D01*
X94999Y64519D02*
X98049Y61468D01*
X101303Y62993D02*
X101303Y67569D01*
X101303Y62993D02*
X102828Y61468D01*
X104354Y62993D01*
X105879Y61468D01*
X107404Y62993D01*
X107404Y67569D01*
X110658Y67569D02*
X112184Y67569D01*
X112184Y61468D01*
X113709Y61468D02*
X110658Y61468D01*
X112184Y70620D02*
X112184Y72145D01*
X116895Y67569D02*
X118420Y67569D01*
X118420Y61468D01*
X116895Y61468D02*
X119946Y61468D01*
X118420Y70620D02*
X118420Y72145D01*
X124657Y67569D02*
X129233Y67569D01*
X124657Y67569D02*
X123132Y66044D01*
X123132Y62993D01*
X124657Y61468D01*
X129233Y61468D01*
X173228Y62993D02*
X173228Y69095D01*
X174753Y70620D01*
X177804Y70620D01*
X179329Y69095D01*
X179329Y62993D01*
X177804Y61468D01*
X174753Y61468D01*
X173228Y62993D01*
X176279Y64519D02*
X179329Y61468D01*
X182583Y62993D02*
X182583Y67569D01*
X182583Y62993D02*
X184108Y61468D01*
X185634Y62993D01*
X187159Y61468D01*
X188684Y62993D01*
X188684Y67569D01*
X191938Y67569D02*
X193464Y67569D01*
X193464Y61468D01*
X194989Y61468D02*
X191938Y61468D01*
X193464Y70620D02*
X193464Y72145D01*
X198175Y67569D02*
X199700Y67569D01*
X199700Y61468D01*
X198175Y61468D02*
X201226Y61468D01*
X199700Y70620D02*
X199700Y72145D01*
X205937Y67569D02*
X210513Y67569D01*
X205937Y67569D02*
X204412Y66044D01*
X204412Y62993D01*
X205937Y61468D01*
X210513Y61468D01*
D12*
X207182Y74012D02*
X179242Y74012D01*
X179242Y86712D01*
X207182Y86712D01*
X207182Y74012D01*
X85058Y128552D02*
X85058Y156492D01*
X85058Y128552D02*
X72358Y128552D01*
X72358Y156492D01*
X85058Y156492D01*
X27700Y102200D02*
X2300Y102200D01*
X2300Y203800D01*
X27700Y203800D01*
X27700Y102200D01*
D13*
X83586Y55000D02*
X83588Y55075D01*
X83594Y55149D01*
X83604Y55223D01*
X83617Y55296D01*
X83635Y55369D01*
X83656Y55440D01*
X83681Y55511D01*
X83710Y55580D01*
X83743Y55647D01*
X83779Y55712D01*
X83818Y55776D01*
X83860Y55837D01*
X83906Y55896D01*
X83955Y55953D01*
X84007Y56006D01*
X84061Y56057D01*
X84118Y56106D01*
X84178Y56150D01*
X84240Y56192D01*
X84304Y56231D01*
X84370Y56266D01*
X84437Y56297D01*
X84507Y56325D01*
X84577Y56349D01*
X84649Y56370D01*
X84722Y56386D01*
X84795Y56399D01*
X84870Y56408D01*
X84944Y56413D01*
X85019Y56414D01*
X85093Y56411D01*
X85168Y56404D01*
X85241Y56393D01*
X85315Y56379D01*
X85387Y56360D01*
X85458Y56338D01*
X85528Y56312D01*
X85597Y56282D01*
X85663Y56249D01*
X85728Y56212D01*
X85791Y56172D01*
X85852Y56128D01*
X85910Y56082D01*
X85966Y56032D01*
X86019Y55980D01*
X86070Y55925D01*
X86117Y55867D01*
X86161Y55807D01*
X86202Y55744D01*
X86240Y55680D01*
X86274Y55614D01*
X86305Y55545D01*
X86332Y55476D01*
X86355Y55405D01*
X86374Y55333D01*
X86390Y55260D01*
X86402Y55186D01*
X86410Y55112D01*
X86414Y55037D01*
X86414Y54963D01*
X86410Y54888D01*
X86402Y54814D01*
X86390Y54740D01*
X86374Y54667D01*
X86355Y54595D01*
X86332Y54524D01*
X86305Y54455D01*
X86274Y54386D01*
X86240Y54320D01*
X86202Y54256D01*
X86161Y54193D01*
X86117Y54133D01*
X86070Y54075D01*
X86019Y54020D01*
X85966Y53968D01*
X85910Y53918D01*
X85852Y53872D01*
X85791Y53828D01*
X85728Y53788D01*
X85663Y53751D01*
X85597Y53718D01*
X85528Y53688D01*
X85458Y53662D01*
X85387Y53640D01*
X85315Y53621D01*
X85241Y53607D01*
X85168Y53596D01*
X85093Y53589D01*
X85019Y53586D01*
X84944Y53587D01*
X84870Y53592D01*
X84795Y53601D01*
X84722Y53614D01*
X84649Y53630D01*
X84577Y53651D01*
X84507Y53675D01*
X84437Y53703D01*
X84370Y53734D01*
X84304Y53769D01*
X84240Y53808D01*
X84178Y53850D01*
X84118Y53894D01*
X84061Y53943D01*
X84007Y53994D01*
X83955Y54047D01*
X83906Y54104D01*
X83860Y54163D01*
X83818Y54224D01*
X83779Y54288D01*
X83743Y54353D01*
X83710Y54420D01*
X83681Y54489D01*
X83656Y54560D01*
X83635Y54631D01*
X83617Y54704D01*
X83604Y54777D01*
X83594Y54851D01*
X83588Y54925D01*
X83586Y55000D01*
D14*
X95000Y6000D02*
X125000Y6000D01*
X80000Y32000D02*
X80000Y48500D01*
X132500Y48500D02*
X140000Y48500D01*
X140000Y32000D01*
X87500Y48500D02*
X80000Y48500D01*
D13*
X163586Y55000D02*
X163588Y55075D01*
X163594Y55149D01*
X163604Y55223D01*
X163617Y55296D01*
X163635Y55369D01*
X163656Y55440D01*
X163681Y55511D01*
X163710Y55580D01*
X163743Y55647D01*
X163779Y55712D01*
X163818Y55776D01*
X163860Y55837D01*
X163906Y55896D01*
X163955Y55953D01*
X164007Y56006D01*
X164061Y56057D01*
X164118Y56106D01*
X164178Y56150D01*
X164240Y56192D01*
X164304Y56231D01*
X164370Y56266D01*
X164437Y56297D01*
X164507Y56325D01*
X164577Y56349D01*
X164649Y56370D01*
X164722Y56386D01*
X164795Y56399D01*
X164870Y56408D01*
X164944Y56413D01*
X165019Y56414D01*
X165093Y56411D01*
X165168Y56404D01*
X165241Y56393D01*
X165315Y56379D01*
X165387Y56360D01*
X165458Y56338D01*
X165528Y56312D01*
X165597Y56282D01*
X165663Y56249D01*
X165728Y56212D01*
X165791Y56172D01*
X165852Y56128D01*
X165910Y56082D01*
X165966Y56032D01*
X166019Y55980D01*
X166070Y55925D01*
X166117Y55867D01*
X166161Y55807D01*
X166202Y55744D01*
X166240Y55680D01*
X166274Y55614D01*
X166305Y55545D01*
X166332Y55476D01*
X166355Y55405D01*
X166374Y55333D01*
X166390Y55260D01*
X166402Y55186D01*
X166410Y55112D01*
X166414Y55037D01*
X166414Y54963D01*
X166410Y54888D01*
X166402Y54814D01*
X166390Y54740D01*
X166374Y54667D01*
X166355Y54595D01*
X166332Y54524D01*
X166305Y54455D01*
X166274Y54386D01*
X166240Y54320D01*
X166202Y54256D01*
X166161Y54193D01*
X166117Y54133D01*
X166070Y54075D01*
X166019Y54020D01*
X165966Y53968D01*
X165910Y53918D01*
X165852Y53872D01*
X165791Y53828D01*
X165728Y53788D01*
X165663Y53751D01*
X165597Y53718D01*
X165528Y53688D01*
X165458Y53662D01*
X165387Y53640D01*
X165315Y53621D01*
X165241Y53607D01*
X165168Y53596D01*
X165093Y53589D01*
X165019Y53586D01*
X164944Y53587D01*
X164870Y53592D01*
X164795Y53601D01*
X164722Y53614D01*
X164649Y53630D01*
X164577Y53651D01*
X164507Y53675D01*
X164437Y53703D01*
X164370Y53734D01*
X164304Y53769D01*
X164240Y53808D01*
X164178Y53850D01*
X164118Y53894D01*
X164061Y53943D01*
X164007Y53994D01*
X163955Y54047D01*
X163906Y54104D01*
X163860Y54163D01*
X163818Y54224D01*
X163779Y54288D01*
X163743Y54353D01*
X163710Y54420D01*
X163681Y54489D01*
X163656Y54560D01*
X163635Y54631D01*
X163617Y54704D01*
X163604Y54777D01*
X163594Y54851D01*
X163588Y54925D01*
X163586Y55000D01*
D14*
X175000Y6000D02*
X205000Y6000D01*
X160000Y32000D02*
X160000Y48500D01*
X212500Y48500D02*
X220000Y48500D01*
X220000Y32000D01*
X167500Y48500D02*
X160000Y48500D01*
D12*
X272300Y102200D02*
X297700Y102200D01*
X272300Y102200D02*
X272300Y203800D01*
X297700Y203800D01*
X297700Y102200D01*
X82752Y86598D02*
X54812Y86598D01*
X54812Y99298D01*
X82752Y99298D01*
X82752Y86598D01*
X82498Y72120D02*
X54558Y72120D01*
X54558Y84820D01*
X82498Y84820D01*
X82498Y72120D01*
X120650Y96730D02*
X120650Y200870D01*
X191770Y200870D01*
X191770Y103080D01*
X185420Y96730D01*
X120650Y96730D01*
X189731Y92920D02*
X189733Y93055D01*
X189739Y93190D01*
X189749Y93325D01*
X189763Y93459D01*
X189781Y93593D01*
X189803Y93726D01*
X189828Y93859D01*
X189858Y93991D01*
X189891Y94121D01*
X189929Y94251D01*
X189970Y94380D01*
X190015Y94507D01*
X190064Y94633D01*
X190116Y94758D01*
X190172Y94881D01*
X190232Y95002D01*
X190295Y95121D01*
X190361Y95239D01*
X190432Y95354D01*
X190505Y95467D01*
X190582Y95579D01*
X190662Y95687D01*
X190745Y95794D01*
X190831Y95898D01*
X190921Y95999D01*
X191013Y96098D01*
X191108Y96193D01*
X191206Y96286D01*
X191307Y96377D01*
X191410Y96464D01*
X191516Y96548D01*
X191624Y96628D01*
X191735Y96706D01*
X191847Y96780D01*
X191962Y96851D01*
X192079Y96919D01*
X192198Y96983D01*
X192319Y97043D01*
X192441Y97100D01*
X192565Y97154D01*
X192691Y97203D01*
X192818Y97249D01*
X192946Y97291D01*
X193076Y97330D01*
X193207Y97364D01*
X193338Y97395D01*
X193471Y97421D01*
X193604Y97444D01*
X193737Y97463D01*
X193872Y97478D01*
X194006Y97489D01*
X194141Y97496D01*
X194276Y97499D01*
X194411Y97498D01*
X194546Y97493D01*
X194681Y97484D01*
X194815Y97471D01*
X194950Y97454D01*
X195083Y97433D01*
X195216Y97409D01*
X195348Y97380D01*
X195479Y97347D01*
X195609Y97311D01*
X195738Y97271D01*
X195866Y97227D01*
X195992Y97179D01*
X196117Y97127D01*
X196240Y97072D01*
X196362Y97014D01*
X196482Y96951D01*
X196599Y96886D01*
X196715Y96816D01*
X196829Y96744D01*
X196941Y96668D01*
X197050Y96588D01*
X197157Y96506D01*
X197262Y96420D01*
X197364Y96332D01*
X197463Y96240D01*
X197560Y96146D01*
X197653Y96049D01*
X197744Y95949D01*
X197832Y95846D01*
X197917Y95741D01*
X197999Y95633D01*
X198077Y95523D01*
X198152Y95411D01*
X198224Y95297D01*
X198292Y95180D01*
X198357Y95062D01*
X198419Y94941D01*
X198476Y94819D01*
X198531Y94696D01*
X198581Y94570D01*
X198628Y94444D01*
X198671Y94316D01*
X198710Y94186D01*
X198746Y94056D01*
X198777Y93925D01*
X198805Y93793D01*
X198829Y93660D01*
X198849Y93526D01*
X198865Y93392D01*
X198877Y93257D01*
X198885Y93123D01*
X198889Y92988D01*
X198889Y92852D01*
X198885Y92717D01*
X198877Y92583D01*
X198865Y92448D01*
X198849Y92314D01*
X198829Y92180D01*
X198805Y92047D01*
X198777Y91915D01*
X198746Y91784D01*
X198710Y91654D01*
X198671Y91524D01*
X198628Y91396D01*
X198581Y91270D01*
X198531Y91144D01*
X198476Y91021D01*
X198419Y90899D01*
X198357Y90778D01*
X198292Y90660D01*
X198224Y90543D01*
X198152Y90429D01*
X198077Y90317D01*
X197999Y90207D01*
X197917Y90099D01*
X197832Y89994D01*
X197744Y89891D01*
X197653Y89791D01*
X197560Y89694D01*
X197463Y89600D01*
X197364Y89508D01*
X197262Y89420D01*
X197157Y89334D01*
X197050Y89252D01*
X196941Y89172D01*
X196829Y89096D01*
X196715Y89024D01*
X196600Y88954D01*
X196482Y88889D01*
X196362Y88826D01*
X196240Y88768D01*
X196117Y88713D01*
X195992Y88661D01*
X195866Y88613D01*
X195738Y88569D01*
X195609Y88529D01*
X195479Y88493D01*
X195348Y88460D01*
X195216Y88431D01*
X195083Y88407D01*
X194950Y88386D01*
X194815Y88369D01*
X194681Y88356D01*
X194546Y88347D01*
X194411Y88342D01*
X194276Y88341D01*
X194141Y88344D01*
X194006Y88351D01*
X193872Y88362D01*
X193737Y88377D01*
X193604Y88396D01*
X193471Y88419D01*
X193338Y88445D01*
X193207Y88476D01*
X193076Y88510D01*
X192946Y88549D01*
X192818Y88591D01*
X192691Y88637D01*
X192565Y88686D01*
X192441Y88740D01*
X192319Y88797D01*
X192198Y88857D01*
X192079Y88921D01*
X191962Y88989D01*
X191847Y89060D01*
X191735Y89134D01*
X191624Y89212D01*
X191516Y89292D01*
X191410Y89376D01*
X191307Y89463D01*
X191206Y89554D01*
X191108Y89647D01*
X191013Y89742D01*
X190921Y89841D01*
X190831Y89942D01*
X190745Y90046D01*
X190662Y90153D01*
X190582Y90261D01*
X190505Y90373D01*
X190432Y90486D01*
X190361Y90601D01*
X190295Y90719D01*
X190232Y90838D01*
X190172Y90959D01*
X190116Y91082D01*
X190064Y91207D01*
X190015Y91333D01*
X189970Y91460D01*
X189929Y91589D01*
X189891Y91719D01*
X189858Y91849D01*
X189828Y91981D01*
X189803Y92114D01*
X189781Y92247D01*
X189763Y92381D01*
X189749Y92515D01*
X189739Y92650D01*
X189733Y92785D01*
X189731Y92920D01*
X58302Y280000D02*
X58305Y280225D01*
X58313Y280449D01*
X58327Y280674D01*
X58346Y280898D01*
X58371Y281121D01*
X58401Y281344D01*
X58437Y281566D01*
X58478Y281787D01*
X58525Y282007D01*
X58576Y282225D01*
X58634Y282443D01*
X58696Y282658D01*
X58764Y282873D01*
X58837Y283085D01*
X58916Y283296D01*
X58999Y283505D01*
X59088Y283711D01*
X59181Y283916D01*
X59280Y284118D01*
X59383Y284317D01*
X59492Y284514D01*
X59605Y284708D01*
X59723Y284900D01*
X59845Y285088D01*
X59973Y285273D01*
X60104Y285455D01*
X60240Y285634D01*
X60381Y285810D01*
X60525Y285982D01*
X60674Y286150D01*
X60827Y286315D01*
X60984Y286476D01*
X61145Y286633D01*
X61310Y286786D01*
X61478Y286935D01*
X61650Y287079D01*
X61826Y287220D01*
X62005Y287356D01*
X62187Y287487D01*
X62372Y287615D01*
X62560Y287737D01*
X62752Y287855D01*
X62946Y287968D01*
X63143Y288077D01*
X63342Y288180D01*
X63544Y288279D01*
X63749Y288372D01*
X63955Y288461D01*
X64164Y288544D01*
X64375Y288623D01*
X64587Y288696D01*
X64802Y288764D01*
X65017Y288826D01*
X65235Y288884D01*
X65453Y288935D01*
X65673Y288982D01*
X65894Y289023D01*
X66116Y289059D01*
X66339Y289089D01*
X66562Y289114D01*
X66786Y289133D01*
X67011Y289147D01*
X67235Y289155D01*
X67460Y289158D01*
X67685Y289155D01*
X67909Y289147D01*
X68134Y289133D01*
X68358Y289114D01*
X68581Y289089D01*
X68804Y289059D01*
X69026Y289023D01*
X69247Y288982D01*
X69467Y288935D01*
X69685Y288884D01*
X69903Y288826D01*
X70118Y288764D01*
X70333Y288696D01*
X70545Y288623D01*
X70756Y288544D01*
X70965Y288461D01*
X71171Y288372D01*
X71376Y288279D01*
X71578Y288180D01*
X71777Y288077D01*
X71974Y287968D01*
X72168Y287855D01*
X72360Y287737D01*
X72548Y287615D01*
X72733Y287487D01*
X72915Y287356D01*
X73094Y287220D01*
X73270Y287079D01*
X73442Y286935D01*
X73610Y286786D01*
X73775Y286633D01*
X73936Y286476D01*
X74093Y286315D01*
X74246Y286150D01*
X74395Y285982D01*
X74539Y285810D01*
X74680Y285634D01*
X74816Y285455D01*
X74947Y285273D01*
X75075Y285088D01*
X75197Y284900D01*
X75315Y284708D01*
X75428Y284514D01*
X75537Y284317D01*
X75640Y284118D01*
X75739Y283916D01*
X75832Y283711D01*
X75921Y283505D01*
X76004Y283296D01*
X76083Y283085D01*
X76156Y282873D01*
X76224Y282658D01*
X76286Y282443D01*
X76344Y282225D01*
X76395Y282007D01*
X76442Y281787D01*
X76483Y281566D01*
X76519Y281344D01*
X76549Y281121D01*
X76574Y280898D01*
X76593Y280674D01*
X76607Y280449D01*
X76615Y280225D01*
X76618Y280000D01*
X76615Y279775D01*
X76607Y279551D01*
X76593Y279326D01*
X76574Y279102D01*
X76549Y278879D01*
X76519Y278656D01*
X76483Y278434D01*
X76442Y278213D01*
X76395Y277993D01*
X76344Y277775D01*
X76286Y277557D01*
X76224Y277342D01*
X76156Y277127D01*
X76083Y276915D01*
X76004Y276704D01*
X75921Y276495D01*
X75832Y276289D01*
X75739Y276084D01*
X75640Y275882D01*
X75537Y275683D01*
X75428Y275486D01*
X75315Y275292D01*
X75197Y275100D01*
X75075Y274912D01*
X74947Y274727D01*
X74816Y274545D01*
X74680Y274366D01*
X74539Y274190D01*
X74395Y274018D01*
X74246Y273850D01*
X74093Y273685D01*
X73936Y273524D01*
X73775Y273367D01*
X73610Y273214D01*
X73442Y273065D01*
X73270Y272921D01*
X73094Y272780D01*
X72915Y272644D01*
X72733Y272513D01*
X72548Y272385D01*
X72360Y272263D01*
X72168Y272145D01*
X71974Y272032D01*
X71777Y271923D01*
X71578Y271820D01*
X71376Y271721D01*
X71171Y271628D01*
X70965Y271539D01*
X70756Y271456D01*
X70545Y271377D01*
X70333Y271304D01*
X70118Y271236D01*
X69903Y271174D01*
X69685Y271116D01*
X69467Y271065D01*
X69247Y271018D01*
X69026Y270977D01*
X68804Y270941D01*
X68581Y270911D01*
X68358Y270886D01*
X68134Y270867D01*
X67909Y270853D01*
X67685Y270845D01*
X67460Y270842D01*
X67235Y270845D01*
X67011Y270853D01*
X66786Y270867D01*
X66562Y270886D01*
X66339Y270911D01*
X66116Y270941D01*
X65894Y270977D01*
X65673Y271018D01*
X65453Y271065D01*
X65235Y271116D01*
X65017Y271174D01*
X64802Y271236D01*
X64587Y271304D01*
X64375Y271377D01*
X64164Y271456D01*
X63955Y271539D01*
X63749Y271628D01*
X63544Y271721D01*
X63342Y271820D01*
X63143Y271923D01*
X62946Y272032D01*
X62752Y272145D01*
X62560Y272263D01*
X62372Y272385D01*
X62187Y272513D01*
X62005Y272644D01*
X61826Y272780D01*
X61650Y272921D01*
X61478Y273065D01*
X61310Y273214D01*
X61145Y273367D01*
X60984Y273524D01*
X60827Y273685D01*
X60674Y273850D01*
X60525Y274018D01*
X60381Y274190D01*
X60240Y274366D01*
X60104Y274545D01*
X59973Y274727D01*
X59845Y274912D01*
X59723Y275100D01*
X59605Y275292D01*
X59492Y275486D01*
X59383Y275683D01*
X59280Y275882D01*
X59181Y276084D01*
X59088Y276289D01*
X58999Y276495D01*
X58916Y276704D01*
X58837Y276915D01*
X58764Y277127D01*
X58696Y277342D01*
X58634Y277557D01*
X58576Y277775D01*
X58525Y277993D01*
X58478Y278213D01*
X58437Y278434D01*
X58401Y278656D01*
X58371Y278879D01*
X58346Y279102D01*
X58327Y279326D01*
X58313Y279551D01*
X58305Y279775D01*
X58302Y280000D01*
X224842Y281540D02*
X224845Y281765D01*
X224853Y281989D01*
X224867Y282214D01*
X224886Y282438D01*
X224911Y282661D01*
X224941Y282884D01*
X224977Y283106D01*
X225018Y283327D01*
X225065Y283547D01*
X225116Y283765D01*
X225174Y283983D01*
X225236Y284198D01*
X225304Y284413D01*
X225377Y284625D01*
X225456Y284836D01*
X225539Y285045D01*
X225628Y285251D01*
X225721Y285456D01*
X225820Y285658D01*
X225923Y285857D01*
X226032Y286054D01*
X226145Y286248D01*
X226263Y286440D01*
X226385Y286628D01*
X226513Y286813D01*
X226644Y286995D01*
X226780Y287174D01*
X226921Y287350D01*
X227065Y287522D01*
X227214Y287690D01*
X227367Y287855D01*
X227524Y288016D01*
X227685Y288173D01*
X227850Y288326D01*
X228018Y288475D01*
X228190Y288619D01*
X228366Y288760D01*
X228545Y288896D01*
X228727Y289027D01*
X228912Y289155D01*
X229100Y289277D01*
X229292Y289395D01*
X229486Y289508D01*
X229683Y289617D01*
X229882Y289720D01*
X230084Y289819D01*
X230289Y289912D01*
X230495Y290001D01*
X230704Y290084D01*
X230915Y290163D01*
X231127Y290236D01*
X231342Y290304D01*
X231557Y290366D01*
X231775Y290424D01*
X231993Y290475D01*
X232213Y290522D01*
X232434Y290563D01*
X232656Y290599D01*
X232879Y290629D01*
X233102Y290654D01*
X233326Y290673D01*
X233551Y290687D01*
X233775Y290695D01*
X234000Y290698D01*
X234225Y290695D01*
X234449Y290687D01*
X234674Y290673D01*
X234898Y290654D01*
X235121Y290629D01*
X235344Y290599D01*
X235566Y290563D01*
X235787Y290522D01*
X236007Y290475D01*
X236225Y290424D01*
X236443Y290366D01*
X236658Y290304D01*
X236873Y290236D01*
X237085Y290163D01*
X237296Y290084D01*
X237505Y290001D01*
X237711Y289912D01*
X237916Y289819D01*
X238118Y289720D01*
X238317Y289617D01*
X238514Y289508D01*
X238708Y289395D01*
X238900Y289277D01*
X239088Y289155D01*
X239273Y289027D01*
X239455Y288896D01*
X239634Y288760D01*
X239810Y288619D01*
X239982Y288475D01*
X240150Y288326D01*
X240315Y288173D01*
X240476Y288016D01*
X240633Y287855D01*
X240786Y287690D01*
X240935Y287522D01*
X241079Y287350D01*
X241220Y287174D01*
X241356Y286995D01*
X241487Y286813D01*
X241615Y286628D01*
X241737Y286440D01*
X241855Y286248D01*
X241968Y286054D01*
X242077Y285857D01*
X242180Y285658D01*
X242279Y285456D01*
X242372Y285251D01*
X242461Y285045D01*
X242544Y284836D01*
X242623Y284625D01*
X242696Y284413D01*
X242764Y284198D01*
X242826Y283983D01*
X242884Y283765D01*
X242935Y283547D01*
X242982Y283327D01*
X243023Y283106D01*
X243059Y282884D01*
X243089Y282661D01*
X243114Y282438D01*
X243133Y282214D01*
X243147Y281989D01*
X243155Y281765D01*
X243158Y281540D01*
X243155Y281315D01*
X243147Y281091D01*
X243133Y280866D01*
X243114Y280642D01*
X243089Y280419D01*
X243059Y280196D01*
X243023Y279974D01*
X242982Y279753D01*
X242935Y279533D01*
X242884Y279315D01*
X242826Y279097D01*
X242764Y278882D01*
X242696Y278667D01*
X242623Y278455D01*
X242544Y278244D01*
X242461Y278035D01*
X242372Y277829D01*
X242279Y277624D01*
X242180Y277422D01*
X242077Y277223D01*
X241968Y277026D01*
X241855Y276832D01*
X241737Y276640D01*
X241615Y276452D01*
X241487Y276267D01*
X241356Y276085D01*
X241220Y275906D01*
X241079Y275730D01*
X240935Y275558D01*
X240786Y275390D01*
X240633Y275225D01*
X240476Y275064D01*
X240315Y274907D01*
X240150Y274754D01*
X239982Y274605D01*
X239810Y274461D01*
X239634Y274320D01*
X239455Y274184D01*
X239273Y274053D01*
X239088Y273925D01*
X238900Y273803D01*
X238708Y273685D01*
X238514Y273572D01*
X238317Y273463D01*
X238118Y273360D01*
X237916Y273261D01*
X237711Y273168D01*
X237505Y273079D01*
X237296Y272996D01*
X237085Y272917D01*
X236873Y272844D01*
X236658Y272776D01*
X236443Y272714D01*
X236225Y272656D01*
X236007Y272605D01*
X235787Y272558D01*
X235566Y272517D01*
X235344Y272481D01*
X235121Y272451D01*
X234898Y272426D01*
X234674Y272407D01*
X234449Y272393D01*
X234225Y272385D01*
X234000Y272382D01*
X233775Y272385D01*
X233551Y272393D01*
X233326Y272407D01*
X233102Y272426D01*
X232879Y272451D01*
X232656Y272481D01*
X232434Y272517D01*
X232213Y272558D01*
X231993Y272605D01*
X231775Y272656D01*
X231557Y272714D01*
X231342Y272776D01*
X231127Y272844D01*
X230915Y272917D01*
X230704Y272996D01*
X230495Y273079D01*
X230289Y273168D01*
X230084Y273261D01*
X229882Y273360D01*
X229683Y273463D01*
X229486Y273572D01*
X229292Y273685D01*
X229100Y273803D01*
X228912Y273925D01*
X228727Y274053D01*
X228545Y274184D01*
X228366Y274320D01*
X228190Y274461D01*
X228018Y274605D01*
X227850Y274754D01*
X227685Y274907D01*
X227524Y275064D01*
X227367Y275225D01*
X227214Y275390D01*
X227065Y275558D01*
X226921Y275730D01*
X226780Y275906D01*
X226644Y276085D01*
X226513Y276267D01*
X226385Y276452D01*
X226263Y276640D01*
X226145Y276832D01*
X226032Y277026D01*
X225923Y277223D01*
X225820Y277422D01*
X225721Y277624D01*
X225628Y277829D01*
X225539Y278035D01*
X225456Y278244D01*
X225377Y278455D01*
X225304Y278667D01*
X225236Y278882D01*
X225174Y279097D01*
X225116Y279315D01*
X225065Y279533D01*
X225018Y279753D01*
X224977Y279974D01*
X224941Y280196D01*
X224911Y280419D01*
X224886Y280642D01*
X224867Y280866D01*
X224853Y281091D01*
X224845Y281315D01*
X224842Y281540D01*
X83400Y263600D02*
X51600Y263600D01*
X83400Y263600D02*
X83400Y243280D01*
X111740Y213400D01*
X189800Y213400D01*
X216600Y241740D01*
X216600Y264600D01*
X248400Y264600D01*
X248400Y296400D01*
X216600Y296400D01*
X216600Y346520D01*
X208420Y346520D01*
X187020Y324040D01*
X119520Y324040D01*
X96660Y346520D01*
X83400Y346520D01*
X83400Y296400D01*
X51600Y296400D01*
X51600Y263600D01*
M02*
